<svg width="30" height="23" viewBox="0 0 30 23" fill="none" xmlns="http://www.w3.org/2000/svg">
<circle cx="11.5" cy="11.5" r="10.5" stroke="#244C82" stroke-width="2"/>
<path d="M3.711 8.628H6.195C6.435 8.628 6.672 8.658 6.906 8.718C7.14 8.772 7.347 8.865 7.527 8.997C7.713 9.123 7.863 9.288 7.977 9.492C8.091 9.696 8.148 9.942 8.148 10.23C8.148 10.59 8.046 10.887 7.842 11.121C7.638 11.355 7.371 11.523 7.041 11.625V11.643C7.239 11.667 7.422 11.724 7.59 11.814C7.764 11.898 7.911 12.009 8.031 12.147C8.151 12.279 8.244 12.435 8.31 12.615C8.382 12.789 8.418 12.978 8.418 13.182C8.418 13.53 8.349 13.821 8.211 14.055C8.073 14.283 7.89 14.469 7.662 14.613C7.44 14.751 7.182 14.85 6.888 14.91C6.6 14.97 6.306 15 6.006 15H3.711V8.628ZM4.845 11.22H5.88C6.258 11.22 6.54 11.148 6.726 11.004C6.918 10.854 7.014 10.659 7.014 10.419C7.014 10.143 6.915 9.939 6.717 9.807C6.525 9.669 6.213 9.6 5.781 9.6H4.845V11.22ZM4.845 14.028H5.889C6.033 14.028 6.186 14.019 6.348 14.001C6.516 13.983 6.669 13.941 6.807 13.875C6.945 13.809 7.059 13.716 7.149 13.596C7.239 13.47 7.284 13.302 7.284 13.092C7.284 12.756 7.173 12.522 6.951 12.39C6.735 12.258 6.396 12.192 5.934 12.192H4.845V14.028ZM14.6499 12.66C14.6499 13.044 14.5839 13.392 14.4519 13.704C14.3199 14.01 14.1399 14.271 13.9119 14.487C13.6839 14.703 13.4139 14.871 13.1019 14.991C12.7899 15.105 12.4509 15.162 12.0849 15.162C11.7189 15.162 11.3799 15.105 11.0679 14.991C10.7559 14.871 10.4829 14.703 10.2489 14.487C10.0209 14.271 9.84094 14.01 9.70894 13.704C9.58294 13.392 9.51994 13.044 9.51994 12.66V8.628H10.6539V12.624C10.6539 12.78 10.6779 12.945 10.7259 13.119C10.7739 13.287 10.8519 13.443 10.9599 13.587C11.0739 13.731 11.2209 13.851 11.4009 13.947C11.5869 14.037 11.8149 14.082 12.0849 14.082C12.3549 14.082 12.5799 14.037 12.7599 13.947C12.9459 13.851 13.0929 13.731 13.2009 13.587C13.3149 13.443 13.3959 13.287 13.4439 13.119C13.4919 12.945 13.5159 12.78 13.5159 12.624V8.628H14.6499V12.66ZM19.1651 9.996C19.0451 9.822 18.8831 9.696 18.6791 9.618C18.4811 9.534 18.2711 9.492 18.0491 9.492C17.9171 9.492 17.7881 9.507 17.6621 9.537C17.5421 9.567 17.4311 9.615 17.3291 9.681C17.2331 9.747 17.1551 9.834 17.0951 9.942C17.0351 10.044 17.0051 10.167 17.0051 10.311C17.0051 10.527 17.0801 10.692 17.2301 10.806C17.3801 10.92 17.5661 11.019 17.7881 11.103C18.0101 11.187 18.2531 11.268 18.5171 11.346C18.7811 11.424 19.0241 11.532 19.2461 11.67C19.4681 11.808 19.6541 11.991 19.8041 12.219C19.9541 12.447 20.0291 12.75 20.0291 13.128C20.0291 13.47 19.9661 13.77 19.8401 14.028C19.7141 14.28 19.5431 14.49 19.3271 14.658C19.1171 14.826 18.8711 14.952 18.5891 15.036C18.3071 15.12 18.0101 15.162 17.6981 15.162C17.3021 15.162 16.9211 15.096 16.5551 14.964C16.1891 14.832 15.8741 14.61 15.6101 14.298L16.4651 13.47C16.6031 13.68 16.7831 13.845 17.0051 13.965C17.2331 14.079 17.4731 14.136 17.7251 14.136C17.8571 14.136 17.9891 14.118 18.1211 14.082C18.2531 14.046 18.3731 13.992 18.4811 13.92C18.5891 13.848 18.6761 13.758 18.7421 13.65C18.8081 13.536 18.8411 13.407 18.8411 13.263C18.8411 13.029 18.7661 12.849 18.6161 12.723C18.4661 12.597 18.2801 12.492 18.0581 12.408C17.8361 12.318 17.5931 12.234 17.3291 12.156C17.0651 12.078 16.8221 11.973 16.6001 11.841C16.3781 11.703 16.1921 11.523 16.0421 11.301C15.8921 11.073 15.8171 10.77 15.8171 10.392C15.8171 10.062 15.8831 9.777 16.0151 9.537C16.1531 9.297 16.3301 9.099 16.5461 8.943C16.7681 8.781 17.0201 8.661 17.3021 8.583C17.5841 8.505 17.8721 8.466 18.1661 8.466C18.5021 8.466 18.8261 8.517 19.1381 8.619C19.4561 8.721 19.7411 8.889 19.9931 9.123L19.1651 9.996Z" fill="#244C82"/>
</svg>
