<svg width="138" height="20" viewBox="0 0 138 20" fill="none" xmlns="http://www.w3.org/2000/svg">
<rect width="30" height="18" fill="#F9E426"/>
<rect x="35" width="30" height="18" fill="#99D5DE"/>
<rect x="71" width="30" height="18" fill="#3E8C5A"/>
<rect x="108" width="30" height="18" fill="#C8C53E"/>
<path d="M10.108 8.078H10.542C10.7847 8.078 11.018 8.064 11.242 8.036C11.4753 8.008 11.6807 7.94733 11.858 7.854C12.0447 7.76067 12.194 7.62533 12.306 7.448C12.418 7.27067 12.474 7.03267 12.474 6.734C12.474 6.35133 12.3433 6.03867 12.082 5.796C11.8207 5.55333 11.48 5.432 11.06 5.432C10.724 5.432 10.4207 5.53 10.15 5.726C9.88867 5.91267 9.69733 6.17867 9.576 6.524L7.798 6.048C7.91 5.684 8.06867 5.36667 8.274 5.096C8.47933 4.82533 8.722 4.606 9.002 4.438C9.282 4.26067 9.59 4.13 9.926 4.046C10.262 3.962 10.612 3.92 10.976 3.92C11.4053 3.92 11.8113 3.976 12.194 4.088C12.5767 4.2 12.9127 4.368 13.202 4.592C13.4913 4.80667 13.72 5.082 13.888 5.418C14.0653 5.74467 14.154 6.12733 14.154 6.566C14.154 7.098 14.0047 7.574 13.706 7.994C13.4073 8.40467 12.992 8.67533 12.46 8.806V8.834C13.0947 8.92733 13.5753 9.198 13.902 9.646C14.2287 10.094 14.392 10.626 14.392 11.242C14.392 11.718 14.2987 12.138 14.112 12.502C13.9347 12.866 13.692 13.174 13.384 13.426C13.076 13.6687 12.7167 13.8553 12.306 13.986C11.9047 14.1073 11.4847 14.168 11.046 14.168C10.6353 14.168 10.248 14.1213 9.884 14.028C9.52 13.944 9.18867 13.8087 8.89 13.622C8.60067 13.4353 8.34867 13.1973 8.134 12.908C7.91933 12.6093 7.756 12.2547 7.644 11.844L9.436 11.368C9.53867 11.7787 9.72067 12.096 9.982 12.32C10.2433 12.544 10.598 12.656 11.046 12.656C11.27 12.656 11.48 12.6187 11.676 12.544C11.8813 12.4693 12.0587 12.3667 12.208 12.236C12.3667 12.096 12.488 11.9327 12.572 11.746C12.6653 11.55 12.712 11.3353 12.712 11.102C12.712 10.7847 12.642 10.528 12.502 10.332C12.3713 10.1267 12.1987 9.97267 11.984 9.87C11.7787 9.758 11.5453 9.68333 11.284 9.646C11.0227 9.60867 10.766 9.59 10.514 9.59H10.108V8.078ZM19.0372 6.02L17.1752 7.742L16.1952 6.58L19.1912 4.088H20.7172V14H19.0372V6.02Z" fill="black"/>
<path d="M49.07 5.6H45.08L45.038 7.574C45.1687 7.52733 45.332 7.49467 45.528 7.476C45.7333 7.45733 45.9247 7.448 46.102 7.448C46.5873 7.448 47.0307 7.52733 47.432 7.686C47.8427 7.83533 48.1927 8.05467 48.482 8.344C48.7713 8.63333 48.9953 8.97867 49.154 9.38C49.322 9.78133 49.406 10.234 49.406 10.738C49.406 11.27 49.3127 11.7507 49.126 12.18C48.9487 12.6 48.6967 12.9593 48.37 13.258C48.0527 13.5473 47.6747 13.7713 47.236 13.93C46.7973 14.0887 46.326 14.168 45.822 14.168C45.0287 14.168 44.352 13.9813 43.792 13.608C43.2413 13.2347 42.8493 12.6653 42.616 11.9L44.38 11.424C44.492 11.7787 44.6833 12.0587 44.954 12.264C45.2247 12.4693 45.5747 12.572 46.004 12.572C46.256 12.572 46.4847 12.53 46.69 12.446C46.9047 12.362 47.0867 12.2453 47.236 12.096C47.3947 11.9373 47.516 11.7553 47.6 11.55C47.684 11.3447 47.726 11.1207 47.726 10.878C47.726 10.5327 47.6607 10.2387 47.53 9.996C47.4087 9.75333 47.2407 9.55733 47.026 9.408C46.8113 9.24933 46.564 9.13733 46.284 9.072C46.004 8.99733 45.71 8.96 45.402 8.96C45.038 8.96 44.674 9.002 44.31 9.086C43.9553 9.17 43.6287 9.28667 43.33 9.436L43.428 4.088H49.07V5.6ZM54.9752 11.984H50.7612V10.318L54.7512 4.088H56.6552V10.472H58.0972V11.984H56.6552V14H54.9752V11.984ZM54.9752 6.468H54.9472L52.4692 10.472H54.9752V6.468Z" fill="black"/>
<path d="M84.118 4.088L81.738 7.756L81.766 7.784C81.8687 7.728 82.004 7.686 82.172 7.658C82.3493 7.63 82.522 7.616 82.69 7.616C83.1287 7.616 83.53 7.7 83.894 7.868C84.258 8.036 84.5707 8.26467 84.832 8.554C85.1027 8.84333 85.308 9.17933 85.448 9.562C85.5973 9.94467 85.672 10.3507 85.672 10.78C85.672 11.2933 85.5833 11.76 85.406 12.18C85.2287 12.6 84.9813 12.9593 84.664 13.258C84.356 13.5473 83.9827 13.7713 83.544 13.93C83.1147 14.0887 82.648 14.168 82.144 14.168C81.6213 14.168 81.1453 14.0933 80.716 13.944C80.2867 13.7853 79.9133 13.5613 79.596 13.272C79.288 12.9827 79.0453 12.628 78.868 12.208C78.7 11.788 78.616 11.3167 78.616 10.794C78.616 10.2713 78.7 9.8 78.868 9.38C79.0453 8.95067 79.2693 8.51667 79.54 8.078L82.074 4.088H84.118ZM80.38 10.766C80.38 11.018 80.4267 11.256 80.52 11.48C80.6133 11.6947 80.7393 11.886 80.898 12.054C81.066 12.2127 81.2573 12.3387 81.472 12.432C81.696 12.5253 81.934 12.572 82.186 12.572C82.438 12.572 82.6713 12.5253 82.886 12.432C83.11 12.3387 83.3013 12.2127 83.46 12.054C83.628 11.886 83.7587 11.6947 83.852 11.48C83.9453 11.256 83.992 11.018 83.992 10.766C83.992 10.514 83.9453 10.2807 83.852 10.066C83.7587 9.842 83.628 9.65067 83.46 9.492C83.3013 9.324 83.11 9.19333 82.886 9.1C82.6713 9.00667 82.438 8.96 82.186 8.96C81.934 8.96 81.696 9.00667 81.472 9.1C81.2573 9.19333 81.066 9.324 80.898 9.492C80.7393 9.65067 80.6133 9.842 80.52 10.066C80.4267 10.2807 80.38 10.514 80.38 10.766ZM92.4032 4.088L90.0232 7.756L90.0512 7.784C90.1538 7.728 90.2892 7.686 90.4572 7.658C90.6345 7.63 90.8072 7.616 90.9752 7.616C91.4138 7.616 91.8152 7.7 92.1792 7.868C92.5432 8.036 92.8558 8.26467 93.1172 8.554C93.3878 8.84333 93.5932 9.17933 93.7332 9.562C93.8825 9.94467 93.9572 10.3507 93.9572 10.78C93.9572 11.2933 93.8685 11.76 93.6912 12.18C93.5138 12.6 93.2665 12.9593 92.9492 13.258C92.6412 13.5473 92.2678 13.7713 91.8292 13.93C91.3998 14.0887 90.9332 14.168 90.4292 14.168C89.9065 14.168 89.4305 14.0933 89.0012 13.944C88.5718 13.7853 88.1985 13.5613 87.8812 13.272C87.5732 12.9827 87.3305 12.628 87.1532 12.208C86.9852 11.788 86.9012 11.3167 86.9012 10.794C86.9012 10.2713 86.9852 9.8 87.1532 9.38C87.3305 8.95067 87.5545 8.51667 87.8252 8.078L90.3592 4.088H92.4032ZM88.6652 10.766C88.6652 11.018 88.7118 11.256 88.8052 11.48C88.8985 11.6947 89.0245 11.886 89.1832 12.054C89.3512 12.2127 89.5425 12.3387 89.7572 12.432C89.9812 12.5253 90.2192 12.572 90.4712 12.572C90.7232 12.572 90.9565 12.5253 91.1712 12.432C91.3952 12.3387 91.5865 12.2127 91.7452 12.054C91.9132 11.886 92.0438 11.6947 92.1372 11.48C92.2305 11.256 92.2772 11.018 92.2772 10.766C92.2772 10.514 92.2305 10.2807 92.1372 10.066C92.0438 9.842 91.9132 9.65067 91.7452 9.492C91.5865 9.324 91.3952 9.19333 91.1712 9.1C90.9565 9.00667 90.7232 8.96 90.4712 8.96C90.2192 8.96 89.9812 9.00667 89.7572 9.1C89.5425 9.19333 89.3512 9.324 89.1832 9.492C89.0245 9.65067 88.8985 9.842 88.8052 10.066C88.7118 10.2807 88.6652 10.514 88.6652 10.766Z" fill="white"/>
<path d="M115.588 4.088H122.322V5.628L118.36 14H116.386L120.432 5.684H115.588V4.088ZM127.975 11.984H123.761V10.318L127.751 4.088H129.655V10.472H131.097V11.984H129.655V14H127.975V11.984ZM127.975 6.468H127.947L125.469 10.472H127.975V6.468Z" fill="black"/>
</svg>
