<?xml version="1.0" encoding="UTF-8" standalone="no"?>
<svg
   xmlns:dc="http://purl.org/dc/elements/1.1/"
   xmlns:cc="http://creativecommons.org/ns#"
   xmlns:rdf="http://www.w3.org/1999/02/22-rdf-syntax-ns#"
   xmlns:svg="http://www.w3.org/2000/svg"
   xmlns="http://www.w3.org/2000/svg"
   viewBox="0 0 3104.2144 1305.5739"
   height="1305.5739"
   width="3104.2144"
   id="svg2"
   version="1.1">
  <metadata
     id="metadata8">
    <rdf:RDF>
      <cc:Work
         rdf:about="">
        <dc:format>image/svg+xml</dc:format>
        <dc:type
           rdf:resource="http://purl.org/dc/dcmitype/StillImage" />
        <dc:title></dc:title>
      </cc:Work>
    </rdf:RDF>
  </metadata>
  <defs
     id="defs6" />
  <path
     id="path68"
     d="m 1307.0837,720.65913 c -106.8253,-1.12767 -130.9699,-1.89377 -137.1098,-4.35049 -5.2558,-2.10293 -12.9217,-10.10389 -16.3283,-17.04186 -1.9492,-3.96983 -2.3212,-9.51506 -3.1763,-47.34459 -0.5326,-23.56648 -0.8167,-173.47454 -0.6313,-333.12904 l 0.3371,-290.280856 3.2882,-5.5935 c 4.2086,-7.1591 14.3417,-16.2822995 20.0437,-18.0460995 5.5323,-1.7113 181.7265,-3.5507 247.8308,-2.5873 l 45.4558,0.6625 0.801,5.3416 c 0.4406,2.9378995 0.4252,10.6422995 -0.034,17.1209995 l -0.8352,11.7793 -33.9552,0.7262 c -42.6713,0.9125 -44.8286,1.3405 -54.7427,10.8605 l -7.5768,7.2756 V 361.46934 666.88652 l 6.2781,5.89427 c 11.9912,11.25795 10.8148,11.00614 53.8012,11.51471 l 37.75,0.44659 -0.3334,17.6875 -0.3333,17.68748 -6.035,0.79951 c -7.2487,0.96031 -45.1122,0.89721 -154.4946,-0.25745 z"
     style="fill:#0080cb;fill-opacity:1;stroke:#0080cb;stroke-width:1.20698917;stroke-opacity:1" />
  <path
     id="path70"
     d="m 1535.5164,721.31571 c -21.4249,-0.62731 -23.4771,-0.87873 -25.0791,-3.0726 -1.3486,-1.84694 -1.6685,-5.80953 -1.409,-17.45318 l 0.3357,-15.06374 21.1224,-2.10557 c 51.108,-5.09467 81.8649,-12.42148 110.4882,-26.32021 70.8128,-34.38476 102.684,-105.6407 109.3373,-244.45015 2.5495,-53.19373 -1.7572,-135.64967 -9.2673,-177.42743 -4.7029,-26.16103 -19.1494,-74.75102 -24.5624,-82.61294 -1.1674,-1.6958 -4.4377,-7.4285 -7.2672,-12.7392 -10.5643,-19.8285 -25.613,-37.9617 -43.3335,-52.215496 -37.8528,-30.4476 -74.1956,-42.6549 -150.1808,-50.4443 l -6.9401,-0.7115 V 19.474894 2.2503945 l 20.8205,-0.7898 c 52.7903,-2.00250001 134.3479,-0.3477 170.6253,3.462 86.3118,9.0639995 146.6754,38.9834995 187.6343,93.0015995 28.6836,37.828996 48.5486,90.030556 57.1473,150.172026 6.6511,46.51874 7.2184,55.77425 7.2512,118.28494 0.033,62.22003 -0.8008,78.14345 -6.096,116.47446 -5.9424,43.0168 -16.9414,81.91487 -31.269,110.58326 -16.3296,32.67388 -40.845,61.44339 -66.9497,78.56705 -45.4425,29.80855 -96.2221,43.57423 -176.824,47.93454 -27.4674,1.48591 -104.9597,2.27194 -135.5841,1.37524 z"
     style="fill:#0080cb;fill-opacity:1;stroke:#0080cb;stroke-width:1.20698917;stroke-opacity:1" />
  <path
     id="path72"
     d="m 3.4191175,1062.2529 c -3.24178997,-5.6755 -3.21635997,-261.2477 0.0263,-264.48982 1.72871,-1.72843 13.8174205,-2.20382 54.6221005,-2.14809 58.445442,0.0798 66.957802,1.21173 86.365002,11.48389 13.53307,7.16299 32.92847,26.49895 39.83475,39.71268 2.96132,5.66587 7.15545,16.41959 9.32024,23.89717 3.71102,12.8184 3.92825,16.32773 3.79983,61.38992 -0.15333,53.77841 -0.82414,58.01421 -12.86482,81.22515 -9.5744,18.4566 -23.76924,32.1252 -43.64197,42.0241 -15.00563,7.4746 -16.5394,7.8668 -35.84573,9.1678 -11.093142,0.7475 -38.001192,1.4084 -59.795672,1.4685 -39.3596105,0.1085 -39.6410805,0.083 -41.8200405,-3.7313 z M 120.71123,1021.767 c 11.98533,-5.8005 25.26683,-19.8898 30.14564,-31.97921 3.86699,-9.58216 3.99316,-11.45891 3.99316,-59.39608 v -49.50128 l -4.86452,-9.91314 c -6.11545,-12.46234 -19.86407,-26.57782 -30.98123,-31.8079 -7.78296,-3.66151 -11.57946,-4.1058 -43.102522,-5.04423 l -34.56782,-1.02905 0.002,97.06233 0.002,97.06236 35.41902,-0.6617 c 33.256492,-0.6213 35.940112,-0.9138 43.953732,-4.7921 z"
     style="fill:#1d274b;fill-opacity:1;stroke:#1d274b;stroke-width:1.70694053;stroke-opacity:1" />
  <path
     id="path74"
     d="m 295.76832,1069.6248 c -24.89127,-2.1751 -52.07739,-23.734 -62.71013,-49.7299 -2.82517,-6.9072 -3.8493,-12.6606 -5.15615,-28.96668 -0.75919,-9.47247 -0.758,-45.51128 0.002,-50.99484 3.51521,-25.37381 18.25176,-47.60726 40.06268,-60.44367 13.37308,-7.87047 28.71642,-11.71834 44.29599,-11.10875 16.59751,0.64943 33.39574,5.76776 44.1671,13.45748 4.30866,3.07598 10.38404,8.61821 15.26768,13.92785 10.91505,11.86715 18.09412,27.21064 19.96652,42.67351 1.40971,11.64174 1.25452,37.45733 -0.24892,41.41172 -1.14443,3.01007 -8.05672,3.37655 -76.36621,4.04887 -25.6933,0.25288 -46.78839,0.53307 -46.87797,0.62265 -0.30631,0.30631 1.65759,13.65352 2.54359,17.28696 2.03727,8.3546 6.17063,15.7512 12.05929,21.58 5.13898,5.0867 10.31175,7.8351 17.75371,9.4329 2.88693,0.6199 5.36917,0.7689 12.16195,0.7299 12.85673,-0.074 16.66411,-1.08 22.91145,-6.0553 4.11587,-3.2779 7.98473,-7.8044 11.01398,-12.8864 1.29088,-2.1656 3.11002,-4.5947 4.04255,-5.3979 3.12257,-2.6897 4.73309,-2.9251 19.85463,-2.9018 15.17734,0.023 16.60509,0.2198 17.79693,2.4487 1.07026,2.0015 0.93766,7.414 -0.28037,11.4451 -3.20745,10.615 -14.3164,25.1946 -25.75895,33.8066 -9.59953,7.2248 -22.43606,13.2201 -32.19055,15.0346 -4.47004,0.8315 -27.05713,1.2123 -34.31048,0.5784 z m 55.28155,-116.71153 c 0.14253,-0.3716 0.37678,-2.2439 0.52042,-4.16067 0.31417,-4.1928 -0.51824,-9.50617 -2.41882,-15.43938 -2.76212,-8.62275 -5.31982,-12.85536 -10.99388,-18.19309 -7.48753,-7.04373 -15.8851,-9.63294 -29.85375,-9.20479 -9.62411,0.29499 -14.82766,1.7666 -21.50055,6.08054 -8.25266,5.33525 -13.69847,13.72228 -16.61623,25.59045 -2.68395,10.91713 -2.24256,13.05688 3.00829,14.58335 3.56781,1.03719 11.85957,1.28013 46.16921,1.35273 28.31415,0.0599 31.45172,-4.1e-4 31.68531,-0.60914 z"
     style="fill:#1d274b;fill-opacity:1;stroke:#1d274b;stroke-width:0.42673513;stroke-opacity:1" />
  <path
     id="path76"
     d="m 302.60845,850.29626 c -8.91659,-0.64114 -9.45588,-2.3234 -4.14295,-12.9238 6.10759,-12.18592 20.86356,-39.20496 22.22598,-40.697 1.60833,-1.7614 4.49484,-2.03614 21.44236,-2.04093 8.68407,-0.002 16.47568,0.14198 17.3147,0.3209 2.21229,0.47184 3.38204,1.73046 3.38162,3.63856 -8.4e-4,3.43042 -2.52507,7.44433 -21.43876,34.08928 l -12.8215,18.06246 -10.71416,-0.0618 c -5.89279,-0.034 -12.75408,-0.20843 -15.24729,-0.38771 z"
     style="fill:#1d274b;fill-opacity:1;stroke:#1d274b;stroke-width:0.42673513;stroke-opacity:1" />
  <path
     id="path78"
     d="m 446.39572,1066.2392 c -6.15335,-0.345 -7.76413,-0.9586 -8.97844,-3.4201 -1.55815,-3.1586 -1.81907,-15.4675 -1.82388,-86.0408 l -0.004,-66.63835 -6.18765,-0.24759 c -15.38656,-0.61566 -24.82901,-1.64307 -26.29685,-2.86127 -1.73122,-1.43679 -2.74453,-11.20522 -2.24067,-21.60056 0.33351,-6.88091 1.17175,-10.06509 2.82315,-10.7242 2.91233,-1.16236 5.81668,-1.42882 17.93154,-1.64516 12.73845,-0.22747 12.91636,-0.24293 13.09983,-1.13806 0.10228,-0.4991 0.78402,-6.95643 1.51492,-14.34961 2.01401,-20.37184 3.48414,-27.14044 7.72646,-35.57322 8.24667,-16.3926 19.40107,-23.17433 42.83749,-26.04463 7.61555,-0.93271 21.88437,-1.67418 27.81832,-1.44559 6.60809,0.25456 8.67968,1.13278 10.35774,4.39101 1.06067,2.05943 1.08652,2.32681 1.22278,12.64799 0.18944,14.34713 -0.53846,17.16062 -4.92792,19.04787 -2.55101,1.09678 -7.00028,1.67617 -15.4812,2.01599 -13.74456,0.5507 -16.62308,1.34183 -20.9421,5.75575 -4.82262,4.92859 -4.99492,5.74289 -6.16271,29.12642 l -0.27172,5.44087 15.28853,8.5e-4 c 19.16874,10e-4 28.10404,0.61349 30.38018,2.08148 1.22004,0.78685 1.86295,4.84519 2.07791,13.11689 0.32269,12.4166 -0.74451,18.03699 -3.71676,19.57399 -2.0984,1.08513 -9.37118,1.48456 -27.16886,1.49215 l -16.27645,0.007 -0.22437,69.23777 c -0.21668,66.86271 -0.47107,80.27411 -1.60255,84.48581 -0.38887,1.4476 -0.63234,1.652 -2.67451,2.2457 -1.24799,0.3628 -5.55717,0.8368 -9.69388,1.0664 -8.12345,0.4508 -10.28603,0.4503 -18.40378,-0 z"
     style="fill:#1d274b;fill-opacity:1;stroke:#1d274b;stroke-width:0.42673513;stroke-opacity:1" />
  <path
     id="path80"
     d="m 604.96963,1068.6375 c -4.82687,-1.1471 -16.83189,-6.5478 -24.19841,-10.886 -8.54427,-5.0319 -19.70377,-15.8222 -23.95011,-23.1578 -11.79398,-20.374 -15.83359,-39.82105 -14.6398,-70.47705 1.03731,-26.63698 3.10916,-37.14326 10.09837,-51.20821 11.4997,-23.14181 31.19209,-37.76948 56.96313,-42.31271 7.88997,-1.39093 25.82524,-1.4048 33.28534,-0.0257 22.32992,4.12789 39.22052,15.45412 51.68369,34.65721 10.77396,16.60038 13.52529,27.14821 14.58968,55.93251 0.61201,16.55072 0.35412,17.79023 -4.19036,20.14027 -4.09348,2.11683 -21.02472,2.76415 -73.81822,2.82226 l -46.30075,0.051 0.0146,5.33419 c 0.0485,17.45743 9.67604,34.03323 23.80789,40.99033 5.3914,2.6542 6.01,2.7582 18.16491,3.0546 12.46127,0.304 12.63595,0.2824 17.99809,-2.2269 7.25553,-3.3953 16.29733,-11.8535 17.82225,-16.6719 0.87378,-2.7609 1.85557,-3.9469 4.22787,-5.107 6.62555,-3.24 29.76049,-4.1017 35.42964,-1.3196 3.76647,1.8484 4.25507,3.4256 2.64401,8.5353 -1.5951,5.0592 -10.14211,19.4809 -15.89838,26.8259 -4.97096,6.343 -15.17723,13.7908 -26.85669,19.5981 -8.62444,4.2883 -10.2535,4.7977 -17.61147,5.5066 -9.9138,0.9551 -35.16322,0.9196 -39.26548,-0.055 z M 667.7611,947.44326 c -0.76855,-7.79947 -2.55512,-14.64478 -5.30196,-20.31441 -2.86174,-5.90684 -10.76101,-14.2807 -17.0374,-18.06103 -4.79309,-2.88692 -5.29296,-2.9972 -14.89773,-3.28675 -5.46603,-0.16478 -12.03529,0.13574 -14.59834,0.66783 -11.67827,2.4244 -21.71963,10.03222 -26.37678,19.98432 -4.61604,9.86425 -6.73733,25.59723 -3.56314,26.42673 0.82146,0.21468 19.69011,0.43487 41.93032,0.48932 l 40.43675,0.099 z"
     style="fill:#1d274b;fill-opacity:1;stroke:#1d274b;stroke-width:0.85347027;stroke-opacity:1" />
  <path
     id="path82"
     d="m 873.1982,1066.0101 c -5.28234,-1.5264 -5.02771,1.477 -6.21435,-73.3022 -0.83138,-52.3917 -1.16221,-56.15312 -5.81086,-66.06662 -3.44478,-7.34623 -10.00324,-14.21973 -16.23753,-17.01752 -6.70235,-3.00783 -12.21999,-3.96982 -22.76947,-3.96982 -8.49692,0 -8.94033,0.0972 -15.56158,3.41125 -8.41629,4.21248 -12.2525,8.25599 -17.41141,18.35224 l -3.92488,7.68123 -0.59453,52.42413 c -0.68844,60.70341 -1.3341,75.00351 -3.45654,76.55541 -0.78427,0.5735 -4.28337,1.3105 -7.7758,1.6377 -7.35545,0.6893 -27.28665,0.178 -28.18773,-0.7231 -1.36894,-1.3689 -1.92237,-20.6379 -1.96791,-68.51769 -0.0263,-27.73548 0.20589,-66.5781 0.51618,-86.31691 l 0.56413,-35.88875 12.92582,-0.60579 c 14.70184,-0.68902 21.86852,-0.0639 24.59715,2.14566 1.63033,1.32015 1.92951,2.52937 2.18897,8.84696 l 0.30051,7.3178 7.38079,-6.47222 c 13.28619,-11.65065 27.78684,-16.98592 45.78695,-16.84652 29.8125,0.23089 51.72133,14.5695 62.61082,40.97669 7.0401,17.07246 7.2903,20.20348 7.3356,91.79857 0.045,71.0972 1.4517,63.5127 -12.0032,64.7144 -10.57696,0.9446 -18.72578,0.8953 -22.29113,-0.1349 z"
     style="fill:#1d274b;fill-opacity:1;stroke:#1d274b;stroke-width:0.85347027;stroke-opacity:1" />
  <path
     id="path84"
     d="m 997.14503,1069.0494 c -0.9388,-0.2197 -3.7976,-0.8239 -6.3529,-1.3427 -5.966,-1.2113 -16.2427,-5.5544 -22.2383,-9.3983 -18.4172,-11.8077 -28.9657,-28.9141 -29.0054,-47.0375 l -0.013,-5.7609 10.455,-0.1722 c 21.867,-0.3601 25.5256,0.4206 27.0001,5.7608 2.0769,7.522 11.785,18.4858 19.3199,21.8189 8.85077,3.9151 33.93297,3.846 42.90817,-0.1182 5.8654,-2.5907 9.3957,-6.4013 10.9804,-11.8528 1.6836,-5.7914 1.1513,-14.2267 -1.1461,-18.1603 -3.4286,-5.87065 -16.5371,-11.35127 -39.1623,-16.37372 -19.90297,-4.41817 -27.94027,-6.91219 -37.56647,-11.6571 -13.545,-6.67647 -23.2144,-16.83054 -27.1965,-28.55961 -3.2858,-9.67803 -3.6316,-26.06917 -0.7808,-37.01388 2.0519,-7.87795 6.2078,-14.53163 13.9649,-22.35825 6.1971,-6.25258 8.2116,-7.71577 13.8203,-10.03824 13.691,-5.66919 30.31207,-8.28961 48.05627,-7.57638 13.6538,0.54882 22.0796,2.40269 31.4745,6.92507 11.7903,5.67552 23.2736,16.11621 29.7973,27.09201 4.126,6.94186 7.6314,18.0051 7.2753,22.96169 -0.398,5.53931 -1.6007,5.89616 -19.9224,5.91115 l -15.3857,0.0126 -3.6294,-7.31817 c -6.1598,-12.42018 -13.3239,-18.48717 -25.1125,-21.26656 -11.2136,-2.64383 -22.9458,-1.15999 -32.57627,4.12009 -6.7003,3.67358 -8.1933,6.48586 -8.1933,15.43379 0,15.09845 5.2333,18.82818 37.96517,27.05743 56.0196,14.08411 71.2095,28.10199 69.2497,63.90658 -0.909,16.6081 -4.1693,26.0435 -12.0137,34.7684 -6.4801,7.2074 -20.9098,15.7813 -31.4857,18.7083 -4.3217,1.1961 -46.4557,2.4713 -50.48667,1.528 z"
     style="fill:#1d274b;fill-opacity:1;stroke:#1d274b;stroke-width:0.85347027;stroke-opacity:1" />
  <path
     id="path88"
     d="m 1363.9756,1068.7225 c -7.6897,-1.233 -16.7606,-6.4209 -25.0961,-14.3533 -9.4864,-9.0275 -13.0496,-14.4202 -17.0703,-25.8349 -5.1401,-14.5924 -5.925,-19.9821 -6.7714,-46.49477 -0.9628,-30.15829 -0.9872,-96.94329 -0.037,-101.8599 1.2273,-6.35217 1.6031,-6.49289 18.2138,-6.81935 17.8981,-0.35177 20.6305,0.24385 21.9907,4.79349 0.6249,2.09047 1.1929,23.4533 1.6614,62.49245 0.7747,64.54578 0.8418,65.40828 5.7998,74.54868 3.1028,5.7204 9.7506,12.8856 14.6,15.7364 3.8282,2.2505 4.3169,2.3164 17.1691,2.3164 12.7095,0 13.4168,-0.092 18.0164,-2.3511 5.3516,-2.6282 12.0088,-9.19 15.6702,-15.4459 4.4349,-7.5773 4.7332,-10.5304 5.6156,-55.6014 1.079,-55.10713 2.1363,-83.1732 3.1725,-84.20935 0.464,-0.464 2.3308,-1.18868 4.1485,-1.6104 4.4985,-1.04371 26.4696,-1.00142 30.2845,0.0583 2.9325,0.81455 3.1087,1.07408 3.6199,5.32943 0.714,5.94468 0.7064,146.81542 -0.01,168.18042 l -0.5612,16.7581 -3.066,1.0649 c -3.9605,1.3755 -28.5569,1.3548 -31.9119,-0.027 -2.9185,-1.2018 -4.8662,-5.4972 -4.8662,-10.7315 0,-2.0997 -0.39,-4.0587 -0.8668,-4.3534 -0.4768,-0.2946 -3.6453,1.9807 -7.0411,5.0564 -7.4595,6.7561 -14.0151,10.4005 -21.7333,12.0818 -6.7486,1.4702 -34.3527,2.3303 -40.9317,1.2754 z"
     style="fill:#1d274b;fill-opacity:1;stroke:#1d274b;stroke-width:0.85347027;stroke-opacity:1" />
  <path
     id="path90"
     d="m 1524.333,1065.3069 c -1.5494,-0.3903 -3.0474,-0.9399 -3.3288,-1.2213 -1.3705,-1.3705 -1.9737,-30.228 -1.9737,-94.42139 0,-73.08099 0.5673,-93.49626 2.6339,-94.77348 3.2991,-2.03891 29.1873,-2.12179 32.9548,-0.1055 2.5173,1.34725 2.9305,2.87072 3.4603,12.75868 0.2585,4.82585 0.8126,8.98601 1.2313,9.24479 0.4188,0.25878 3.3395,-2.20659 6.4905,-5.4786 7.3217,-7.60274 14.3734,-12.1024 23.8179,-15.19798 6.5197,-2.13696 8.8158,-2.46331 17.3303,-2.46331 11.2664,0 14.0685,0.56929 15.4429,3.13743 1.4504,2.71009 2.0421,22.37774 0.8458,28.1134 -1.5817,7.58291 -3.1553,8.56119 -15.2099,9.45561 -5.5221,0.40973 -12.1525,1.34205 -14.7343,2.07183 -12.5142,3.53735 -20.9277,11.0033 -27.921,24.77649 l -4.2672,8.40409 -1.0136,53.76864 c -0.5574,29.5727 -1.2315,55.2184 -1.4979,56.9904 -0.3102,2.0635 -1.1402,3.5897 -2.3087,4.2452 -2.1703,1.2174 -27.6765,1.7722 -31.9526,0.695 z"
     style="fill:#1d274b;fill-opacity:1;stroke:#1d274b;stroke-width:0.85347027;stroke-opacity:1" />
  <path
     id="path92"
     d="m 1708.7804,1068.7056 c -4.9433,-0.7846 -18.271,-6.8718 -24.7082,-11.2851 -16.0302,-10.9898 -26.7874,-29.3552 -30.1559,-51.4838 -1.6104,-10.58038 -1.6523,-64.69617 -0.057,-74.07867 1.4602,-8.58904 4.2645,-16.75669 8.6419,-25.17076 10.548,-20.2745 29.0898,-32.84727 54.989,-37.28676 9.4874,-1.62628 12.9364,-1.62663 22.2509,-0.002 14.5722,2.54118 28.396,9.63988 37.9911,19.50903 2.5658,2.63897 4.9661,4.79813 5.3343,4.79813 0.3681,0 0.6958,-15.84254 0.7281,-35.20564 0.073,-44.22027 0.7796,-59.88034 2.7886,-61.88931 1.022,-1.0221 3.273,-1.54127 7.6381,-1.76169 5.2203,-0.26363 6.5204,-0.0441 8.3067,1.40287 l 2.1178,1.7154 -0.037,129.16222 c -0.02,71.03923 -0.3312,130.98548 -0.6921,133.21398 -0.4638,2.8644 -1.2037,4.3508 -2.5246,5.0722 -2.5883,1.4136 -13.851,1.4233 -15.2622,0.013 -0.7347,-0.7343 -1.2093,-4.3831 -1.4157,-10.8818 -0.3581,-11.2812 -0.8835,-11.838 -5.6649,-6.003 -5.7685,7.0397 -18.0315,15.131 -28.1232,18.556 -4.3397,1.4728 -7.7777,1.801 -21.3869,2.0411 -8.9187,0.1574 -18.2606,-0.038 -20.7597,-0.4351 z m 33.2478,-18.7946 c 8.4578,-1.8459 10.9309,-2.9554 18.441,-8.2724 9.6936,-6.8627 19.0356,-21.0313 21.5706,-32.7148 0.6173,-2.8455 1.1973,-16.30404 1.4726,-34.17533 0.6269,-40.68793 -0.6775,-50.35155 -8.4107,-62.31658 -6.7289,-10.41078 -16.0117,-17.50929 -28.5003,-21.79404 -8.9035,-3.05471 -25.1153,-3.87794 -33.7378,-1.7132 -18.7561,4.70878 -32.6517,18.60906 -37.4817,37.49392 -2.5022,9.78343 -3.7369,31.10468 -3.1869,55.0362 0.6254,27.21863 1.9733,33.55573 9.7131,45.66423 4.4464,6.956 10.7515,13.8789 14.3198,15.7226 1.4229,0.7353 2.973,1.8633 3.4445,2.5066 0.4715,0.6434 4.8882,2.518 9.8148,4.1658 8.4507,2.8264 9.414,2.9686 17.0185,2.5108 4.4335,-0.2669 11.4187,-1.2181 15.5225,-2.1138 z"
     style="fill:#1d274b;fill-opacity:1;stroke:#1d274b;stroke-width:0.85347027;stroke-opacity:1" />
  <path
     id="path94"
     d="m 1906.6476,1068.2609 c -8.3665,-1.5794 -20.1079,-7.4401 -27.6905,-13.8216 -13.7919,-11.6072 -24.227,-30.8493 -26.9946,-49.7771 -1.5596,-10.66605 -0.5742,-69.34529 1.3045,-77.67151 2.0084,-8.90123 5.8107,-18.04587 10.3302,-24.84438 4.6601,-7.00966 15.1245,-18.37633 17.6578,-19.1804 1.0141,-0.32188 2.8739,-1.61533 4.1329,-2.87435 2.4676,-2.46756 12.8625,-6.90246 21.465,-9.15789 6.5217,-1.70992 29.7726,-1.90844 38.1885,-0.32608 13.2767,2.4963 25.3894,9.26009 36.7872,20.54207 6.9005,6.83047 8.7438,9.25853 11.6628,15.36247 5.0337,10.52601 8.6077,26.44102 10.4968,46.7411 1.2565,13.50286 0.046,22.1412 -3.336,23.81751 -0.7785,0.3858 -30.6874,0.81319 -66.4643,0.94978 l -65.0487,0.24834 0.3718,2.31207 c 0.2045,1.27164 0.7971,6.34472 1.3169,11.2735 2.8949,27.44367 9.899,40.76577 27.3705,52.05807 12.9781,8.3881 35.202,10.5604 51.7393,5.0571 10.6127,-3.5317 21.6732,-14.9371 29.0451,-29.9511 l 4.8914,-9.962 8.8056,-0.066 c 7.9953,-0.06 8.7668,0.071 8.3837,1.4273 -0.232,0.8214 -0.6883,3.2005 -1.014,5.2867 -3.468,22.2156 -25.4001,44.8755 -49.7649,51.4163 -8.5905,2.3061 -33.9513,2.969 -43.637,1.1405 z m 77.1091,-114.17252 c -0.9364,-13.06345 -2.268,-22.61287 -3.8828,-27.84626 -5.7994,-18.79307 -18.4998,-31.74256 -35.7248,-36.42506 -7.3756,-2.00501 -21.7153,-3.04189 -28.0573,-2.02877 -13.8556,2.21346 -31.1011,15.40625 -37.8568,28.96076 -4.5702,9.16935 -6.6039,18.03098 -7.1976,31.36503 l -0.5037,11.30849 h 56.8028 56.8026 z"
     style="fill:#1d274b;fill-opacity:1;stroke:#1d274b;stroke-width:0.85347027;stroke-opacity:1" />
  <path
     id="path96"
     d="m 2089.4112,1068.6508 c -11.6686,-1.6198 -20.3884,-5.7463 -30.6312,-14.4958 -11.9958,-10.247 -17.9728,-20.4276 -18.9136,-32.2157 l -0.562,-7.0412 h 7.396 c 8.6326,0 9.943,0.755 12.2291,7.0453 3.3187,9.1324 14.607,20.7366 24.8276,25.5228 7.0589,3.3055 16.73,4.4782 31.9783,3.8774 14.392,-0.567 20.8295,-2.199 28.6528,-7.2638 10.7621,-6.9674 14.2638,-13.9715 14.3762,-28.7549 0.084,-10.9972 -0.5842,-12.7154 -7.711,-19.84226 -7.2408,-7.24076 -13.7771,-9.74097 -44.0258,-16.84061 -30.9606,-7.26669 -41.7418,-11.73266 -51.5488,-21.35314 -9.9574,-9.76815 -13.1166,-18.29913 -13.1166,-35.41902 0,-11.54118 1.4621,-18.65268 5.3303,-25.92746 8.606,-16.18478 27.6835,-25.12288 58.6547,-27.48069 8.5079,-0.64769 18.3014,0.92253 29.491,4.7284 23.0054,7.82475 35.6349,22.2332 37.5172,42.80176 l 0.5945,6.49732 -7.715,0.60354 c -4.6643,0.36488 -8.3363,0.27104 -9.2861,-0.23732 -0.9238,-0.49434 -2.3973,-3.42055 -3.576,-7.10086 -4.1564,-12.97798 -8.4624,-18.36154 -18.4093,-23.01625 -15.5164,-7.26095 -41.1326,-7.05196 -56.9486,0.46462 -6.6432,3.15724 -10.5167,6.74891 -13.2165,12.25506 -2.0966,4.27578 -2.4354,6.06933 -2.6973,14.27821 l -0.2997,9.38817 3.2833,6.36846 c 5.7661,11.18485 13.3435,15.20959 41.156,21.85999 20.7912,4.97151 28.031,6.89102 35.8794,9.51275 25.0002,8.35119 35.3955,21.1668 36.5389,45.04543 0.8354,17.4483 -4.3447,32.6823 -14.0759,41.3954 -5.4697,4.8975 -19.0534,12.0091 -27.0841,14.1795 -5.9772,1.6155 -39.0675,2.4171 -48.0878,1.1649 z"
     style="fill:#1d274b;fill-opacity:1;stroke:#1d274b;stroke-width:0.85347027;stroke-opacity:1" />
  <path
     id="path98"
     d="m 2261.0284,1068.631 c -5.3363,-0.9584 -14.8218,-5.5557 -22.0675,-10.6951 -9.5658,-6.7852 -15.1083,-14.466 -21.9745,-30.452 -6.5258,-15.1935 -8.2344,-27.49467 -8.2008,-59.03476 0.026,-23.3107 0.8905,-34.46098 3.4763,-44.78201 6.9279,-27.65439 22.8886,-45.27438 47.4013,-52.32903 5.7183,-1.64569 8.7275,-1.93103 20.3652,-1.93103 15.1024,0 21.8962,1.34716 32.6312,6.47055 5.0027,2.38756 16.2732,10.64235 18.8949,13.83907 0.6442,0.78554 1.4895,1.42825 1.8785,1.42825 0.3888,0 0.8239,-20.25925 0.9666,-45.02055 0.1864,-32.31941 0.5446,-45.65959 1.2699,-47.28567 1.3439,-3.01352 6.6507,-4.13591 19.5551,-4.13591 11.437,0 17.0393,1.13549 18.4313,3.73561 1.7906,3.34518 2.2853,30.29474 2.2811,124.28492 0,109.78146 -0.5818,139.31606 -2.7636,141.49936 -1.2709,1.2716 -3.5231,1.4569 -17.7106,1.4569 h -16.2546 l -2.4921,-2.7872 c -2.166,-2.4222 -2.4924,-3.4561 -2.4924,-7.8946 0,-6.4024 -0.7896,-6.5004 -7.3401,-0.9108 -6.069,5.1789 -17.1026,11.8195 -22.4045,13.4842 -4.819,1.5132 -36.6095,2.2885 -43.4507,1.0598 z m 43.8362,-36.0835 c 8.6911,-1.822 18.2723,-9.3008 22.4788,-17.5463 4.3964,-8.6178 6.4363,-28.60044 5.8005,-56.82331 -0.4516,-20.04166 -1.2313,-24.90697 -5.3575,-33.42716 -6.4052,-13.22626 -25.9922,-21.94997 -43.0639,-19.17983 -7.9031,1.28244 -16.9201,5.97141 -21.6943,11.28154 -5.1542,5.73268 -9.6105,14.97874 -11.1624,23.1598 -2.7739,14.62459 -2.3754,44.97208 0.8089,61.58586 2.9175,15.2215 10.8568,25.5422 23.4342,30.4631 4.8043,1.8796 20.8175,2.1504 28.7557,0.4863 z"
     style="fill:#1d274b;fill-opacity:1;stroke:#1d274b;stroke-width:0.85347027;stroke-opacity:1" />
  <path
     id="path100"
     d="m 2423.6982,1065.1389 c -1.2506,-0.4581 -2.5467,-1.4839 -2.8804,-2.2797 -1.7415,-4.152 -2.6025,-107.91733 -1.3175,-158.76431 0.8352,-33.05319 -0.5539,-30.32121 15.6255,-30.73068 14.5114,-0.36726 18.2057,0.20196 21.283,3.27919 2.0799,2.07994 2.4321,3.12341 2.4963,7.39476 0.042,2.73521 0.3294,6.89342 0.6402,9.24046 l 0.5654,4.26735 7.8769,-7.44048 c 13.3627,-12.62234 21.0623,-15.90114 39.0987,-16.64986 12.6012,-0.52308 16.0387,0.41219 17.2357,4.68941 0.3588,1.28234 0.6281,8.09245 0.5983,15.13358 -0.082,19.69647 -0.6005,20.32662 -17.4421,21.2446 -15.5461,0.84738 -24.2789,4.17227 -32.446,12.3534 -5.7341,5.74393 -9.8278,13.6828 -11.0612,21.45083 -0.4847,3.05116 -1.271,23.21439 -1.7478,44.80719 -0.9844,44.58666 -2.0772,67.09976 -3.3748,69.52416 -0.4903,0.9163 -2.3273,2.0646 -4.0821,2.552 -3.99,1.1081 -27.9978,1.0525 -31.0681,-0.072 z"
     style="fill:#1d274b;fill-opacity:1;stroke:#1d274b;stroke-width:0.85347027;stroke-opacity:1" />
  <path
     id="path104"
     d="m 2608.5318,1068.7949 c -17.5633,-2.0477 -39.2299,-16.6477 -50.9474,-34.3308 -11.5923,-17.494 -14.8674,-34.3903 -13.9258,-71.8471 0.6874,-27.35486 2.0812,-34.9713 8.9022,-48.64781 8.5354,-17.11365 20.3945,-28.95097 37.2025,-37.13434 18.2385,-8.87977 37.3147,-10.52658 58.7318,-5.07018 27.8497,7.09524 47.7088,25.77377 57.3815,53.97017 3.4845,10.15743 4.1046,18.35752 3.7493,49.57083 l -0.3222,28.27793 -2.7148,7.8617 c -9.6621,27.9788 -26.7135,46.3189 -50.6461,54.4734 -10.2884,3.5056 -31.1551,4.7714 -47.411,2.8762 z m 31.1335,-36.5095 c 6.5843,-2.0493 16.3748,-8.5595 19.7267,-13.1174 6.5996,-8.974 7.8643,-17.0631 7.7849,-49.79291 -0.075,-31.11673 -0.7257,-37.3812 -4.5386,-43.72056 -3.7734,-6.27405 -12.4678,-14.90257 -17.4431,-17.31104 -3.7597,-1.82005 -5.1394,-1.97421 -16.9019,-1.88861 -19.6235,0.14282 -26.2219,2.87656 -33.7696,13.99107 -8.0504,11.8549 -9.5071,19.08873 -9.4548,46.95484 0.057,30.08725 1.3504,38.53591 7.4521,48.65391 4.9502,8.2088 13.7668,14.8845 22.3207,16.9005 5.9968,1.4133 19.2822,1.0549 24.8236,-0.6698 z"
     style="fill:#1d274b;fill-opacity:1;stroke:#1d274b;stroke-width:0.85347027;stroke-opacity:1" />
  <path
     id="path106"
     d="m 2754.6008,1066.4276 c -7.5724,-1.4067 -6.9771,1.001 -7.6727,-31.0291 -0.3394,-15.6206 -0.4801,-57.67215 -0.3127,-93.44795 0.2856,-61.07358 0.3972,-65.13998 1.8282,-66.57068 1.3634,-1.36319 3.3603,-1.52378 18.9471,-1.52378 13.1544,0 17.6948,0.27173 18.5324,1.10911 0.8916,0.8912 1.1595,17.32432 1.3631,83.64009 0.2457,80.03491 -0.2333,103.33551 -2.1645,105.26661 -0.5101,0.51 -2.616,1.2428 -4.68,1.6284 -5.6745,1.0602 -21.9765,1.6451 -25.8409,0.9273 z"
     style="fill:#1d274b;fill-opacity:1;stroke:#1d274b;stroke-width:0.85347027;stroke-opacity:1" />
  <path
     id="path108"
     d="m 2758.6489,841.29576 c -9.7336,-2.9801 -17.2841,-13.52572 -17.2686,-24.1184 0.022,-14.1481 10.7772,-24.33885 25.5886,-24.24349 14.1161,0.0909 23.9231,8.90946 25.3568,22.80094 1.7967,17.40821 -16.0533,30.95658 -33.6768,25.56095 z"
     style="fill:#1d274b;fill-opacity:1;stroke:#1d274b;stroke-width:0.85347027;stroke-opacity:1" />
  <path
     id="path110"
     d="m 2884.5009,1065.45 c -11.9603,-1.464 -21.1511,-5.9429 -29.1103,-14.1861 -4.5483,-4.7106 -10.3424,-15.7156 -11.6233,-22.0762 -0.7208,-3.5806 -2.3611,-75.70277 -2.4989,-109.88432 l -0.04,-10.02827 -10.8817,-0.0623 c -14.5941,-0.0836 -19.7075,-0.86417 -21.6888,-3.31091 -1.3658,-1.68666 -1.5682,-3.5846 -1.5682,-14.70032 0,-7.06759 0.3896,-13.4916 0.8729,-14.39489 1.3168,-2.46042 3.1878,-3.1607 12.4084,-4.64444 9.542,-1.53548 14.3459,-3.8512 18.0423,-8.69742 2.3123,-3.03154 2.3763,-3.42721 2.9536,-18.25219 0.8963,-23.01551 1.1923,-23.30408 23.4457,-22.84914 10.9476,0.2238 14.1827,0.5571 15.1874,1.56458 1.5396,1.54381 3.0297,13.4445 3.046,24.32391 0,4.22468 0.2556,11.36923 0.5542,15.87678 l 0.5426,8.19554 20.8098,0.46759 c 23.6355,0.53109 24.2999,0.7056 25.9449,6.81464 1.4743,5.47541 1.4026,21.01094 -0.1116,24.12102 -2.0057,4.12015 -5.5621,4.79322 -28.1077,5.31954 l -20.0565,0.46821 0.2267,30.8182 c 0.2854,38.79431 1.5447,73.70399 2.7766,76.96319 2.7446,7.2624 10.0543,10.2639 27.7642,11.4005 6.5483,0.4203 12.5513,1.0214 13.3398,1.3358 0.7888,0.3145 1.8606,1.7892 2.3822,3.2771 1.5305,4.3671 2.8789,19.4222 2.2153,24.7341 -0.9574,7.6622 -1.3976,7.8146 -23.061,7.9794 -9.8796,0.075 -20.5736,-0.183 -23.7644,-0.5736 z"
     style="fill:#1d274b;fill-opacity:1;stroke:#1d274b;stroke-width:0.85347027;stroke-opacity:1" />
  <path
     id="path112"
     d="m 3010.6419,1069.1975 c -14.9134,-1.5554 -23.2165,-4.3427 -34.0989,-11.4468 -19.1679,-12.5129 -30.6644,-32.0865 -28.2606,-48.1158 l 0.5875,-3.9176 16.8038,0 16.8037,0 4.1161,8.0896 c 8.9595,17.6085 18.1243,22.3275 41.9052,21.577 13.1281,-0.4143 17.8336,-1.5607 24.0997,-5.8714 9.1359,-6.285 11.2324,-19.0576 4.4046,-26.834 -5.4122,-6.16424 -16.099,-10.53324 -41.749,-17.06772 -8.6389,-2.20156 -18.9717,-5.14682 -22.9618,-6.54573 -21.2988,-7.46757 -33.6777,-18.47148 -38.6351,-34.34402 -2.7042,-8.65822 -2.6438,-26.90502 0.1208,-36.72286 4.5199,-16.04692 14.8412,-26.45009 32.7439,-33.0034 26.2791,-9.61957 52.9086,-8.62975 76.6077,2.84754 7.6226,3.69148 9.9969,5.37499 15.8909,11.26769 6.0229,6.02158 7.5646,8.22553 11.7859,16.84895 7.038,14.37784 7.6211,22.68051 1.765,25.12736 -2.9479,1.23174 -25.1233,1.78741 -29.0665,0.72835 -1.1609,-0.31183 -2.9819,-2.93935 -5.3595,-7.73326 -4.5933,-9.26175 -9.6683,-14.72739 -16.5792,-17.85582 -4.6811,-2.11904 -6.5819,-2.45268 -15.8105,-2.77515 -16.1732,-0.56512 -26.4458,2.32353 -31.4105,8.8326 -5.529,7.24867 -4.2792,17.88281 2.9512,25.11313 4.755,4.75504 9.5298,6.53489 37.7896,14.08638 30.7156,8.20772 40.7103,12.50615 50.4609,21.70183 20.8148,19.62987 19.8533,58.80803 -1.9339,78.80713 -9.0158,8.2758 -17.7814,12.7101 -30.7983,15.58 -6.1971,1.3663 -34.2616,2.4426 -42.1734,1.6175 z"
     style="fill:#1d274b;fill-opacity:1;stroke:#1d274b;stroke-width:0.85347027;stroke-opacity:1" />
  <path
     id="path114"
     d="m 2441.954,1232.5638 v -20.8276 h 330.4207 330.4208 l -1.7823,18.7064 c -0.9801,10.2885 -1.9213,18.8436 -2.0912,19.0113 -0.1702,0.1678 -148.0575,1.1223 -328.6385,2.1213 l -328.3295,1.8162 z"
     style="fill:#e60611;fill-opacity:1;stroke:#e60611;stroke-width:2.58019161;stroke-opacity:1" />
  <path
     id="path116"
     d="m 14.163648,1251.4303 c -7.2750705,-0.3325 -13.33003047,-0.667 -13.45547047,-0.7434 -0.49967,-0.304 -0.19032,-31.1753 0.35204997,-35.1324 l 0.58012,-4.2324 329.4210725,0.015 c 181.18158,0.01 329.91305,0.3267 330.51436,0.709 1.36318,0.8666 1.62975,5.6962 1.38252,25.0477 l -0.19524,15.2799 -317.68599,-0.1688 c -174.7273,-0.093 -323.638342,-0.441 -330.913422,-0.7735 z"
     style="fill:#0e4194;fill-opacity:1;stroke:#0e4194;stroke-width:0.91223544;stroke-opacity:1" />
  <path
     id="path118"
     d="m 741.33953,1278.2796 c -2.6429,-0.2516 -4.47292,-0.6927 -4.93619,-1.19 -0.70874,-0.7607 -0.77578,-1.9035 -0.18186,-3.0999 0.61711,-1.2431 1.63603,-1.993 2.9843,-2.1963 2.13254,-0.3217 2.32868,-0.4172 3.72807,-1.8166 0.94683,-0.9468 1.49184,-1.7043 1.66099,-2.3084 1.17316,-4.1901 2.11229,-42.0876 1.63682,-66.0513 -0.26198,-13.2042 -0.49894,-18.154 -0.96425,-20.142 -0.3997,-1.7076 -2.3776,-3.5927 -5.3362,-5.0857 -3.40744,-1.7195 -5.14185,-3.7306 -4.31098,-4.9987 0.80573,-1.2297 2.79731,-1.5602 11.50528,-1.909 8.03747,-0.3221 44.68585,-0.1454 48.11763,0.2319 5.22152,0.5741 7.23782,1.246 10.8356,3.6105 5.47501,3.5982 8.93002,8.5394 10.43624,14.9253 0.43352,1.8379 0.50002,2.7725 0.49979,7.0233 -4.6e-4,6.5515 -0.66652,9.8501 -2.87656,14.2441 -2.43749,4.8461 -5.82672,8.3128 -12.6035,12.8916 -1.67378,1.1309 -3.42612,2.48 -3.8941,2.998 -0.76693,0.8489 -0.83998,1.0384 -0.74058,1.9204 0.13356,1.1853 1.91244,4.1846 4.76612,8.0362 3.43015,4.6297 6.18132,8.6449 10.04819,14.6649 6.60819,10.2879 11.26439,16.0701 16.14402,20.0481 2.58689,2.109 4.91784,4.498 5.25571,5.3867 0.20296,0.5338 0.1762,0.6934 -0.15734,0.9373 -1.48359,1.0848 -9.84471,2.1113 -17.21257,2.1133 -7.56807,0 -10.83893,-1.3206 -14.62386,-5.9132 -2.11933,-2.5715 -3.9972,-5.4059 -10.88913,-16.4357 -13.17524,-21.0854 -17.28988,-26.6829 -19.61439,-26.6829 -1.95173,0 -2.5122,3.5388 -2.50646,15.8262 0.004,7.2548 0.28299,13.9152 0.69509,16.5582 0.9109,5.8419 2.40831,8.1872 6.46078,10.1194 2.33071,1.1113 3.33152,2.0541 3.33152,3.1383 0,0.5806 -0.14107,0.7416 -0.96925,1.1056 -1.90612,0.8378 -7.40111,1.5697 -15.38515,2.0493 -4.39145,0.2637 -18.13661,0.2644 -20.90374,0 z m 39.16355,-60.1871 c 3.4581,-0.895 7.08417,-3.3301 11.56723,-7.7679 3.25348,-3.2207 3.69012,-4.5421 3.35338,-10.1486 -0.23582,-3.9263 -0.56238,-5.8306 -1.47468,-8.5997 -1.76731,-5.3641 -4.93542,-9.1378 -9.53584,-11.3586 -3.40116,-1.642 -4.75743,-1.8883 -11.00383,-1.9985 l -5.30237,-0.094 v 20.3542 20.3542 l 5.30237,-0.1388 c 4.26184,-0.1116 5.6539,-0.2299 7.09374,-0.6026 z"
     style="fill:#1c264a;fill-opacity:1;stroke:#1c264a;stroke-width:0.22805884;stroke-opacity:1" />
  <path
     id="path120"
     d="m 846.16025,1278.2015 c -6.09339,-0.8932 -6.21448,-0.9406 -6.00674,-2.3481 0.12642,-0.8574 0.92014,-1.5948 2.13645,-1.985 1.06433,-0.3415 2.29706,-0.907 2.73941,-1.2567 1.71828,-1.3582 2.8285,-7.4227 3.35148,-18.3073 0.65149,-13.5592 -0.19135,-50.3627 -1.24807,-54.4986 -0.55101,-2.1566 -1.63921,-3.8461 -3.93121,-6.1037 -1.7431,-1.7169 -3.16928,-3.3366 -3.16928,-3.5993 0,-1.4298 6.52109,-1.8211 30.31725,-1.8193 14.01366,0 27.00329,0.1851 28.86589,0.4088 l 3.3865,0.4068 -0.011,3.9417 c -0.01,2.1679 -0.2769,6.4639 -0.6013,9.5465 -0.9458,8.9874 -2.4576,10.2328 -5.2317,4.3099 -1.8047,-3.853 -4.81257,-6.6724 -8.16769,-7.6558 -3.22389,-0.9449 -20.0156,-2.3109 -20.64812,-1.6797 -0.27214,0.2716 -0.5915,6.9992 -0.70968,14.9503 l -0.21485,14.4564 1.69233,0.6434 c 3.09396,1.1763 14.27788,-1.0996 18.27576,-3.7191 0.84884,-0.5562 1.80193,-1.6914 2.11798,-2.5227 0.6316,-1.6612 3.25346,-2.9565 4.79056,-2.3666 1.57681,0.605 1.94121,3.2092 1.83751,13.1342 -0.095,9.1007 -0.7413,12.901 -2.19364,12.901 -0.75913,0 -3.21574,-2.4926 -5.64813,-5.7308 -1.86782,-2.4865 -6.20328,-3.8767 -13.68077,-4.3867 -4.56018,-0.3111 -5.63949,-0.1995 -6.34986,0.6564 -0.67204,0.8098 -0.80818,4.28 -0.63393,16.1589 0.12204,8.3202 0.38274,15.2881 0.57933,15.4844 0.19658,0.1962 5.56661,0.4371 11.93338,0.5353 14.51968,0.224 15.55522,-0.1983 19.57532,-7.9828 1.8116,-3.508 4.007,-5.0191 6.1162,-4.2097 2.0442,0.7844 0.6985,8.9657 -2.8942,17.5956 l -1.9886,4.7768 -13.32451,0 c -7.32849,7e-4 -19.12997,0.1242 -26.2255,0.2744 -7.09553,0.15 -13.77177,0.1453 -14.8361,-0.011 z"
     style="fill:#1c264a;fill-opacity:1;stroke:#1c264a;stroke-width:0.6450479;stroke-opacity:1" />
  <path
     id="path122"
     d="m 869.027,1178.7417 c -1.24636,-0.6221 -2.30702,-1.6813 -2.41114,-2.4079 -0.21579,-1.5055 6.13558,-12.0464 9.75519,-16.1899 2.14232,-2.4525 2.81594,-2.8319 5.02783,-2.8319 3.25968,0 10.88229,1.898 10.88229,2.7096 0,1.7804 -13.98964,15.3737 -19.24912,18.7038 -1.68677,1.068 -1.89621,1.0688 -4.00505,0.016 z"
     style="fill:#1c264a;fill-opacity:1;stroke:#1c264a;stroke-width:0.6450479;stroke-opacity:1" />
  <path
     id="path124"
     d="m 931.83283,1278.586 c -4.3868,-0.2076 -7.8863,-0.5597 -9.4842,-0.9542 -1.4306,-0.3532 -1.5379,-0.8014 -0.5493,-2.294 0.8653,-1.3063 2.1785,-2.4644 5.6806,-5.0097 l 2.6227,-1.9061 0.067,-21.5346 c 0.1307,-41.9523 -0.6981,-50.9521 -4.9191,-53.4173 -0.4071,-0.2378 -1.4097,-0.5154 -2.2279,-0.6169 -2.2474,-0.2787 -3.3104,-1.1541 -2.4952,-2.055 2.827,-3.1237 29.5988,-4.2522 45.4944,-1.9176 6.5217,0.9578 11.1167,3.0171 15.2302,6.8256 2.9224,2.7057 4.9405,5.949 6.1314,9.8538 0.559,1.833 0.6127,2.3455 0.6287,5.9953 0.019,4.3309 -0.1938,5.883 -1.255,9.1601 -2.8764,8.8818 -9.7088,14.3953 -20.0465,16.1767 -1.9531,0.3366 -3.7684,0.4594 -7.0744,0.4783 -4.8616,0.028 -5.9756,-0.1486 -6.8566,-1.0865 -0.4649,-0.4948 -0.5552,-0.8203 -0.5542,-1.9981 0,-2.5194 1.1545,-3.7296 4.1768,-4.3861 7.5028,-1.63 11.8883,-7.2769 12.8056,-16.489 0.4763,-4.7841 -0.2909,-6.6966 -4.326,-10.7838 -2.8235,-2.86 -4.9597,-4.3977 -7.4661,-5.3742 -1.4244,-0.555 -1.8699,-0.6086 -5.8186,-0.6997 l -4.2761,-0.099 v 34.9869 34.9869 l 2.5351,2.2683 c 3.5415,3.1686 6.3754,6.1977 7.02,7.5033 0.5106,1.034 0.5209,1.1264 0.1559,1.3933 -1.3881,1.015 -14.1291,1.5171 -25.1992,0.993 z"
     style="fill:#1c264a;fill-opacity:1;stroke:#1c264a;stroke-width:0.22805884;stroke-opacity:1" />
  <path
     id="path126"
     d="m 1035.4658,1279.594 c -8.3824,-1.0111 -14.0386,-3.7107 -19.7309,-9.4172 -5.2277,-5.2409 -7.3802,-9.711 -8.3011,-17.2389 -0.7292,-5.9615 -0.8678,-9.7246 -1.0538,-28.6113 -0.1048,-10.6391 -0.2972,-20.1903 -0.4296,-21.3235 -0.4038,-3.4547 -0.9132,-5.6332 -1.6799,-7.1838 -1.004,-2.0306 -1.9677,-2.68 -4.37797,-2.9503 -1.4594,-0.1636 -1.8968,-0.3041 -2.2306,-0.7163 -0.9192,-1.1351 -0.1502,-1.6539 3.17637,-2.1426 4.6021,-0.676 9.9581,-0.8986 21.172,-0.8797 8.8465,0.015 11.365,0.084 12.0871,0.3322 1.9038,0.6542 1.0133,2.0993 -2.5183,4.0863 -2.5293,1.4231 -4.0713,2.9605 -5.1379,5.1224 -1.425,2.8886 -1.9084,10.5692 -1.9013,30.2165 0.01,17.6044 0.4329,25.9735 1.4753,28.9424 1.1977,3.4112 4.8477,7.6557 8.1963,9.5314 10.012,5.6081 22.9135,2.1962 27.7147,-7.3294 1.1574,-2.2961 1.7326,-4.6781 2.1514,-8.9087 0.4511,-4.5571 0.746,-21.2959 0.5947,-33.7527 -0.1917,-15.7759 -0.4992,-19.3317 -1.8486,-21.376 -0.3088,-0.4678 -1.3567,-1.4724 -2.3287,-2.2322 -2.1068,-1.6471 -2.8733,-2.6135 -2.5508,-3.216 0.4748,-0.8872 2.2765,-1.1739 8.0815,-1.2861 8.4039,-0.1623 17.642,0.4939 19.8317,1.4088 1.3455,0.5622 1.1108,0.8599 -1.5436,1.9582 -2.4879,1.0295 -3.8338,2.1542 -4.6946,3.9231 -1.7885,3.6756 -2.0408,6.3672 -2.304,24.5832 -0.2104,14.5612 -0.4784,22.3905 -0.9251,27.025 -1.4431,14.9702 -5.5205,22.0056 -15.6026,26.9225 -6.5086,3.1741 -13.4582,4.702 -21.0573,4.6294 -1.9691,-0.019 -3.8881,-0.071 -4.2644,-0.1167 z"
     style="fill:#1c264a;fill-opacity:1;stroke:#1c264a;stroke-width:0.22805884;stroke-opacity:1" />
  <path
     id="path128"
     d="m 1109.1799,1278.5826 c -4.3882,-0.1999 -8.4964,-0.7265 -9.8299,-1.2601 -1.5307,-0.6124 -1.8026,-2.543 -0.4502,-3.1972 0.3119,-0.1509 1.2511,-0.5923 2.087,-0.981 3.3493,-1.5572 4.5486,-4.3874 5.246,-12.3801 0.4259,-4.8811 0.4294,-46.1252 0,-52.1736 -0.7342,-10.4486 -1.7999,-14.0899 -4.4803,-15.3074 -0.5069,-0.2303 -1.3049,-0.4209 -1.7733,-0.4237 -1.1612,-0.01 -2.2465,-0.9673 -2.276,-2.0143 -0.042,-1.4989 -0.1605,-1.4749 9.3452,-1.9005 26.756,-1.1983 38.9188,-1.1907 44.9373,0.028 3.3331,0.6749 7.0832,2.782 10.1703,5.7144 3.9731,3.774 5.5884,8.3518 5.3083,15.0437 -0.2161,5.1621 -1.2896,8.2627 -3.815,11.0187 -1.8343,2.0018 -3.3743,3.1691 -7.7145,5.8471 -1.9594,1.2091 -3.5528,2.2962 -3.5409,2.4158 0.013,0.1197 1.5105,0.8422 3.33,1.6058 4.3616,1.8303 5.839,2.755 8.1652,5.1106 5.4616,5.5306 7.5625,14.0006 5.7093,23.017 -2.4581,11.9589 -10.8997,17.4058 -29.8835,19.2822 -7.6483,0.756 -20.8526,0.9958 -30.5394,0.5546 z m 32.0218,-9.2143 c 1.9737,-0.5136 3.5043,-1.3182 5.0039,-2.6305 2.7752,-2.4284 4.6506,-5.1408 5.7501,-8.3164 0.575,-1.6604 0.6325,-2.1217 0.6404,-5.1313 0.01,-2.8461 -0.066,-3.5436 -0.525,-5.0061 -1.9245,-6.1282 -6.2997,-10.7976 -12.3634,-13.1947 -2.3679,-0.936 -4.227,-1.311 -9.2248,-1.8606 -2.3832,-0.2621 -4.6153,-0.5331 -4.9602,-0.6023 l -0.6272,-0.1259 5e-4,11.364 c 9e-4,18.2461 0.6048,23.0441 3.0721,24.4084 2.6974,1.4914 9.5362,2.0575 13.2335,1.0954 z m -5.7607,-44.5633 c 3.9642,-1.0114 5.9524,-1.83 8.0094,-3.2979 4.5593,-3.2534 7.0017,-8.6548 6.0985,-13.4867 -0.8763,-4.6884 -4.9997,-8.8838 -10.2981,-10.4782 -2.37,-0.7131 -5.4718,-1.036 -9.9652,-1.0374 l -4.3901,-0 v 10.7758 c 0,10.7775 0.1634,13.9638 0.8074,15.9272 0.3856,1.1757 1.3063,2.1771 2.2933,2.4944 1.1229,0.361 3.7613,0.043 7.443,-0.8959 z"
     style="fill:#1c264a;fill-opacity:1;stroke:#1c264a;stroke-width:0.22805884;stroke-opacity:1" />
  <path
     id="path130"
     d="m 1201.8654,1278.6909 c -4.3583,-0.1243 -11.3291,-0.5446 -13.3415,-0.8045 -2.2573,-0.2916 -2.9647,-0.5186 -2.9647,-0.9512 0,-0.6308 1.8092,-3.0735 4.1688,-5.6285 2.6373,-2.8556 3.4388,-4.1954 3.9337,-6.5753 0.7173,-3.4494 0.8201,-7.455 0.9258,-36.0717 l 0.1065,-28.8494 -4.1223,-3.8442 c -4.2138,-3.9297 -6.1735,-6.147 -5.7802,-6.5403 0.1242,-0.1244 4.6883,-0.2768 10.811,-0.3611 16.746,-0.2306 26.7453,0.4545 27.5472,1.8874 0.4949,0.8843 -0.5571,1.9024 -1.9657,1.9024 -1.8266,0 -5.7411,2.9975 -6.6768,5.1129 -1.1489,2.5972 -1.5813,7.9219 -1.5757,19.4034 0,8.1272 0.6094,49.6123 0.7256,49.7217 0.037,0.035 2.2433,0.2387 4.903,0.4531 6.0018,0.4838 12.5544,0.3892 15.1194,-0.2184 4.2736,-1.0122 7.0123,-3.091 8.8784,-6.7392 1.8311,-3.5798 3.6655,-5.2454 5.777,-5.2454 1.4316,0 1.8942,0.2644 2.2271,1.2729 0.3246,0.9837 0.2025,2.3443 -0.7043,7.8495 -1.139,6.9142 -1.7472,8.6459 -3.729,10.6174 -1.9565,1.9462 -4.2139,2.7144 -9.7125,3.305 -2.2495,0.2416 -28.6004,0.4731 -34.5509,0.3035 z"
     style="fill:#1c264a;fill-opacity:1;stroke:#1c264a;stroke-width:0.22805884;stroke-opacity:1" />
  <path
     id="path132"
     d="m 1269.9409,1278.6743 c -2.7107,-0.1599 -7.545,-0.7839 -8.7016,-1.1232 -1.432,-0.4201 -2.2452,-1.0909 -2.2452,-1.852 0,-0.9099 0.4099,-1.3924 1.7028,-2.004 7.4742,-3.5359 10.0567,-22.3315 7.7543,-56.4383 -1.0394,-15.398 -2.3339,-21.7524 -4.8174,-23.6466 -0.4751,-0.3624 -1.2319,-0.6286 -2.1603,-0.7598 -2.1336,-0.3016 -2.948,-1.0591 -2.6055,-2.4236 0.3054,-1.2169 0.3694,-1.2214 17.1662,-1.2195 8.5021,9e-4 16.3004,0.099 17.3295,0.2169 2.1082,0.2424 3.2601,0.7229 3.2601,1.36 0,0.6247 -1.3666,1.7216 -3.4499,2.7691 -3.3052,1.6618 -4.5459,3.2844 -5.4301,7.102 -1.107,4.7788 -1.3239,8.8796 -1.631,30.8344 -0.3541,25.3164 -0.062,32.6006 1.4292,35.6816 0.2871,0.5931 1.6532,2.2404 3.1425,3.7896 2.5152,2.6161 3.8831,4.411 4.2215,5.5395 0.3009,1.0032 -2.1633,1.6554 -7.9508,2.1042 -2.6613,0.2064 -13.9155,0.2525 -17.0143,0.07 z"
     style="fill:#1c264a;fill-opacity:1;stroke:#1c264a;stroke-width:0.22805884;stroke-opacity:1" />
  <path
     id="path134"
     d="m 1409.4163,1301.5243 c -7.0364,-0.7799 -10.8389,-1.9466 -18.7008,-5.7381 -9.3948,-4.5307 -18.228,-9.8234 -21.6766,-12.9882 -1.3852,-1.2712 -1.6967,-1.4454 -3.193,-1.7858 -2.6383,-0.6 -6.2874,-1.0045 -12.4742,-1.3825 -11.6377,-0.7112 -16.7389,-1.8136 -22.872,-4.9427 -3.1608,-1.6125 -5.5706,-3.3742 -8.2857,-6.0571 -3.9577,-3.9107 -6.4173,-7.3509 -8.9291,-12.4891 -4.7965,-9.8119 -6.0769,-20.2159 -3.8546,-31.321 2.913,-14.556 13.1796,-27.9309 25.7051,-33.4875 6.3034,-2.7963 13.2051,-4.0468 22.2835,-4.0375 13.5368,0.014 23.1331,3.3175 32.0487,11.0331 7.2988,6.3165 11.6414,14.9141 13.1317,25.9987 0.4227,3.144 0.3624,10.2402 -0.1154,13.5695 -1.6841,11.7345 -6.1811,21.4112 -13.2508,28.5129 -1.3947,1.401 -4.1564,3.7749 -6.2195,5.346 -2.0409,1.5543 -3.6316,2.8957 -3.5349,2.9809 0.097,0.085 3.2547,1.902 7.0177,4.0374 14.638,8.3068 19.4038,10.6629 25.2005,12.4588 4.4768,1.387 6.132,1.6174 11.631,1.6197 4.8251,0 5.9432,-0.095 12.0207,-1.0462 2.484,-0.3886 3.1567,-0.4236 3.8352,-0.1997 1.8367,0.6062 1.5788,2.448 -0.655,4.6785 -2.8484,2.8442 -7.8956,4.5709 -15.6241,5.3455 -3.1242,0.3131 -10.2111,0.2576 -13.4884,-0.1055 z m -47.0875,-32.1453 c 4.562,-1.075 8.9055,-3.5073 12.6062,-7.0591 6.9735,-6.693 10.2222,-15.8917 9.6018,-27.187 -0.3019,-5.4957 -1.6201,-11.0985 -3.978,-16.908 -2.4751,-6.0979 -5.2521,-10.4495 -8.917,-13.9725 -3.4434,-3.3103 -6.9248,-5.256 -11.6708,-6.523 -3.1554,-0.8423 -8.1375,-1.0047 -11.2214,-0.3656 -5.0227,1.0407 -8.9923,3.313 -12.8891,7.3779 -8.9494,9.3354 -11.4519,25.2823 -6.3635,40.5513 4.4903,13.4743 14.1859,22.8753 25.175,24.4101 1.8967,0.2649 5.8711,0.097 7.6568,-0.3241 z"
     style="fill:#1c264a;fill-opacity:1;stroke:#1c264a;stroke-width:0.22805884;stroke-opacity:1" />
  <path
     id="path136"
     d="m 1448.9971,1279.1622 c -6.2223,-1.1693 -12.5114,-4.442 -16.7956,-8.7399 -3.6743,-3.686 -5.7778,-7.2868 -7.1756,-12.283 -1.303,-4.6574 -1.4718,-7.7055 -1.6959,-30.6199 -0.1956,-20.0082 -0.3322,-23.4998 -1.0273,-26.2671 -0.5576,-2.2199 -1.2334,-3.3081 -3.6726,-5.9133 -2.6176,-2.7958 -4.4829,-5.1601 -4.3606,-5.527 0.1394,-0.4186 1.3146,-0.5987 5.4095,-0.8292 9.1583,-0.5155 27.5224,0.056 29.8149,0.9272 0.2955,0.1123 0.5169,0.3887 0.5169,0.6453 0,0.7049 -2.3203,3.0344 -5.6306,5.6527 l -3.0356,2.4011 0.01,18.2751 c 0.01,19.0539 0.2578,32.5515 0.6802,36.634 0.5379,5.1977 1.3703,7.2433 4.07,10.0017 4.3269,4.4209 9.2282,6.384 15.2954,6.1262 3.2652,-0.1389 5.2428,-0.6188 8.1399,-1.9757 7.8801,-3.6908 10.5295,-8.6945 11.7196,-22.1343 0.6543,-7.3883 0.6529,-30.6575 0,-37.9718 -0.5456,-6.0914 -1.4797,-10.2518 -2.7863,-12.4106 -0.9533,-1.575 -1.5811,-2.0265 -3.1791,-2.2866 -1.5436,-0.2512 -2.2144,-0.6273 -2.3961,-1.3432 -0.1978,-0.7794 0.2707,-1.11 2.3225,-1.6387 1.4438,-0.3721 3.0476,-0.5154 7.7501,-0.6924 3.2612,-0.1228 7.2016,-0.3241 8.7564,-0.4473 4.4805,-0.3552 6.816,-0.2884 7.9528,0.2276 2.0651,0.9373 1.7255,2.0356 -1.6586,5.3638 -4.3337,4.2622 -4.1419,2.8436 -5.1336,37.9718 -0.4502,15.9472 -0.9338,24.4376 -1.5062,26.4451 -1.6721,5.8635 -10.3368,15.2876 -16.2737,17.7 -2.0452,0.831 -6.1384,1.8376 -9.741,2.3954 -4.1957,0.6497 -13.6143,0.8299 -16.3644,0.313 z"
     style="fill:#1c264a;fill-opacity:1;stroke:#1c264a;stroke-width:0.22805884;stroke-opacity:1" />
  <path
     id="path138"
     d="m 1542.3747,1278.5931 c -12.3765,-0.1533 -19.3069,-0.4165 -23.9507,-0.9096 -2.9467,-0.3129 -3.5502,-0.4944 -3.4513,-1.0384 0.1641,-0.9021 2.2982,-3.5185 5.6892,-6.9745 l 3.5074,-3.5747 -0.3648,-21.6259 c -0.5636,-33.4127 -0.8154,-40.2588 -1.6251,-44.1982 -0.5365,-2.6099 -1.2106,-3.6936 -3.7622,-6.0482 -3.2274,-2.978 -3.5837,-3.8936 -1.8536,-4.7629 1.9439,-0.9766 5.149,-1.34 13.6099,-1.5431 5.8003,-0.1393 35.731,0.2125 43.8705,0.5157 l 3.7322,0.1389 -0.1112,7.5576 c -0.1176,7.9999 -0.3446,10.1712 -1.3414,12.8354 -0.4686,1.2526 -1.2976,2.3621 -1.7648,2.3621 -0.707,0 -1.6353,-1.2925 -2.5337,-3.5279 -2.3075,-5.7414 -4.4325,-7.7294 -9.4517,-8.8424 -1.8285,-0.4054 -3.145,-0.4711 -11.3615,-0.5669 l -9.2934,-0.1085 v 14.961 c 0,14.3699 0.016,14.961 0.4192,14.961 0.6392,0 9.01,-1.1127 11.2656,-1.4975 2.7804,-0.4743 5.737,-1.3666 7.3146,-2.2074 0.8867,-0.4726 1.8772,-1.3108 2.9401,-2.488 3.5054,-3.8821 5.7755,-4.3139 6.6793,-1.2704 0.5104,1.7185 0.8723,8.3373 0.7013,12.8227 -0.2425,6.3576 -0.9481,9.629 -2.2626,10.4904 -1.082,0.7089 -2.2559,-0.041 -4.3555,-2.783 -0.788,-1.0291 -1.7441,-2.133 -2.1246,-2.4532 -1.1458,-0.9642 -3.4825,-1.9234 -6.1156,-2.5107 -2.4095,-0.5374 -14.2199,-2.0352 -14.4256,-1.8295 -0.083,0.083 0.875,32.5391 0.9634,32.6415 0.1808,0.2097 15.2141,0.7985 17.9293,0.7023 7.2532,-0.2569 9.3033,-1.3695 13.1174,-7.1191 3.7735,-5.6883 5.9891,-6.954 7.3557,-4.202 0.711,1.4319 0.8516,3.4927 0.4268,6.2548 -0.4902,3.1869 -1.2471,5.6471 -3.4382,11.1749 l -1.8983,4.7892 -10.5754,0.017 c -5.8165,0.01 -16.3739,-0.055 -23.4608,-0.1425 z"
     style="fill:#1c264a;fill-opacity:1;stroke:#1c264a;stroke-width:0.22805884;stroke-opacity:1" />
  <path
     id="path140"
     d="m 1640.1116,1278.352 c -5.4362,-0.3887 -7.3506,-0.9244 -7.4849,-2.0945 -0.1689,-1.4706 2.3277,-4.1954 7.4613,-8.1436 l 2.8171,-2.1665 -0.1244,-33.1826 c -0.1537,-40.6039 -0.4101,-49.1364 -1.5501,-51.426 -0.7813,-1.569 -2.8187,-3.5379 -4.7865,-4.625 -2.1433,-1.1841 -3.5188,-2.3611 -4.1071,-3.5144 -1.8816,-3.6881 1.17,-3.955 42.8436,-3.7465 26.4156,0.1322 31.2429,0.2347 31.6774,0.6729 0.1043,0.1051 0.1793,3.3378 0.1684,7.1838 -0.029,9.3242 -0.5489,15.2919 -1.5378,17.6587 -0.4311,1.0314 -1.3143,1.636 -2.1015,1.4384 -0.9983,-0.2505 -2.5793,-2.066 -3.4494,-3.9613 -1.871,-4.0745 -2.2197,-4.6836 -3.4306,-5.9916 -2.7594,-2.9804 -7.0177,-4.6069 -14.5453,-5.5557 -2.6726,-0.3368 -14.8916,-1.2735 -16.5913,-1.2719 l -0.8553,9e-4 v 18.6123 18.6123 l 7.2409,-0.1227 c 5.1745,-0.088 7.7561,-0.2237 9.0462,-0.4765 5.6763,-1.1123 8.7476,-3.0293 9.9197,-6.1912 0.8036,-2.1679 1.4866,-3.033 2.9087,-3.6841 1.0149,-0.4647 1.5055,-0.5559 2.5306,-0.4709 1.4533,0.1205 2.1346,0.6982 2.5608,2.1714 0.8626,2.9818 0.8624,24.8063 -2e-4,28.1593 -0.1519,0.5927 -0.5281,1.3483 -0.8347,1.6792 -0.513,0.5537 -0.6735,0.5941 -2.0186,0.5084 -2.1116,-0.1344 -3.1177,-0.914 -4.3968,-3.4067 -0.5394,-1.0511 -1.3089,-2.2559 -1.7103,-2.6774 -2.1316,-2.2379 -6.3406,-4.3976 -10.733,-5.5069 -3.3449,-0.8447 -6.1179,-1.1387 -10.7414,-1.1387 h -3.7719 l 0.018,6.4427 c 0.024,12.5333 0.3886,26.3735 0.7708,29.1889 0.6135,4.5179 1.7873,7.428 3.6258,8.987 0.3975,0.3373 1.565,1.0094 2.5944,1.4936 2.1725,1.0221 3.0882,1.7274 3.4843,2.6837 0.387,0.9344 0.1793,1.3249 -0.9759,1.8359 -3.7153,1.6435 -23.0789,2.7998 -33.9136,2.0252 z"
     style="fill:#1c264a;fill-opacity:1;stroke:#1c264a;stroke-width:0.22805884;stroke-opacity:1" />
  <path
     id="path142"
     d="m 1861.344,1278.5907 c -3.1705,-0.2304 -5.0459,-0.6836 -5.7523,-1.3901 -0.3831,-0.3831 -0.4519,-0.6683 -0.3593,-1.4904 0.1427,-1.2665 1.074,-2.4818 2.5022,-3.2658 2.2568,-1.2389 2.8227,-2.3866 2.616,-5.3061 -0.1925,-2.7183 -0.8975,-5.3961 -3.3453,-12.7079 l -2.1762,-6.4997 -11.8776,-0.059 -11.8775,-0.059 -1.8888,4.6027 c -2.1307,5.1931 -3.0765,8.5838 -3.4662,12.4269 -0.3888,3.8355 0.2152,7.2102 1.478,8.2582 0.1861,0.1544 0.7324,0.3417 1.2139,0.416 1.9049,0.2941 2.7258,1.1861 2.0461,2.2233 -1.0978,1.6754 -8.2501,2.3423 -27.5114,2.565 -15.6456,0.181 -18.8786,-0.1315 -23.2523,-2.247 -1.6203,-0.7837 -2.2973,-1.3022 -4.2321,-3.2411 -2.7681,-2.7739 -3.7491,-4.2023 -9.5746,-13.9391 -4.7721,-7.9763 -8.9654,-14.3652 -11.3348,-17.2698 -1.5025,-1.8422 -5.5717,-5.5825 -5.8118,-5.3423 -0.077,0.076 -0.024,5.7086 0.1171,12.5158 0.266,12.8383 0.4216,14.8688 1.4302,18.6602 0.565,2.1245 1.693,4.2072 2.7291,5.0392 0.4303,0.3455 1.2954,0.745 1.9226,0.8877 2.1134,0.4811 2.2676,0.5555 2.4958,1.2043 0.2832,0.8056 0,1.2848 -1.0493,1.7906 -4.231,2.0343 -27.144,3.0395 -33.2054,1.4566 -1.7317,-0.4522 -1.8411,-0.6089 -1.2608,-1.8037 0.7163,-1.4743 2.6601,-3.448 5.8693,-5.9593 l 2.8621,-2.2399 v -22.6004 c 0,-12.4302 -0.1025,-25.2687 -0.2229,-28.5299 -0.4424,-12.0126 -1.1832,-17.6237 -2.7766,-21.0342 -0.8339,-1.7846 -1.7553,-2.5159 -3.5275,-2.7995 -1.0466,-0.1676 -1.4725,-0.3645 -1.9636,-0.908 -0.9111,-1.0082 -0.8226,-1.5389 0.342,-2.0508 5.2744,-2.3183 33.7341,-3.0525 47.8354,-1.234 6.1238,0.7897 9.2449,2.1667 13.0515,5.7576 2.8922,2.7283 4.9253,6.232 5.9246,10.2098 0.7641,3.0414 0.7136,8.0001 -0.1134,11.0961 -1.2247,4.5872 -3.6014,8.6021 -7.0772,11.9548 -2.4647,2.3776 -4.1704,3.5457 -8.4219,5.7675 -1.7248,0.9013 -3.136,1.6907 -3.136,1.7541 0,0.063 1.4697,2.0302 3.2659,4.3705 4.2636,5.5552 6.7178,9.0388 11.8349,16.799 6.4363,9.7603 9.2427,13.1692 13.8335,16.8021 1.557,1.2321 2.9147,2.2401 3.0176,2.2401 0.3802,0 5.9907,-5.6247 6.9337,-6.951 3.3866,-4.7638 5.8032,-10.652 25.0857,-61.1245 2.9711,-7.7768 5.7508,-14.8747 6.1775,-15.7731 0.8782,-1.8497 1.9268,-2.829 3.7851,-3.5352 1.5971,-0.6068 3.9017,-0.615 5.2223,-0.019 1.8121,0.8183 2.2649,1.5549 4.3117,7.0117 5.3135,14.1663 21.16,53.9391 27.1233,68.0756 1.6822,3.9876 3.3318,6.5134 5.6481,8.6476 2.322,2.1395 3.2452,4.02 2.582,5.2591 -0.3023,0.5648 -1.7984,1.1012 -3.8796,1.391 -2.2438,0.3124 -20.5185,0.4609 -24.1589,0.1964 z m -12.6763,-38.9827 c 1.3718,-0.5216 1.6077,-3.1281 0.6802,-7.5203 -1.3781,-6.5275 -4.1274,-13.5634 -5.6541,-14.4696 -0.3471,-0.206 -0.5304,-0.114 -1.0979,0.5509 -1.4035,1.6442 -6.2868,12.583 -7.3301,16.4203 -0.6021,2.2138 -0.6327,2.6556 -0.21,3.0239 1.4672,1.2785 11.5929,2.7624 13.6119,1.9948 z m -89.8962,-10.8027 c 3.4778,-0.9047 5.44,-1.9561 7.4643,-3.999 1.8077,-1.8243 2.7882,-3.4248 3.6472,-5.9531 0.393,-1.1568 0.5266,-2.1836 0.6084,-4.6752 0.095,-2.8895 0.049,-3.4095 -0.4827,-5.4734 -1.2315,-4.7814 -4.2303,-9.3389 -7.0409,-10.7003 -2.296,-1.1121 -3.5852,-1.3195 -8.9526,-1.4404 l -5.0291,-0.1133 -0.2891,7.9515 c -0.4036,11.1038 -0.5527,21.6102 -0.3299,23.2314 0.1775,1.2945 0.2311,1.3838 0.9855,1.656 1.3601,0.4907 6.7336,0.2144 9.4189,-0.4842 z"
     style="fill:#1c264a;fill-opacity:1;stroke:#1c264a;stroke-width:0.22805884;stroke-opacity:1" />
  <path
     id="path144"
     d="m 1905.0352,1278.6003 c -3.0901,-0.2166 -5.9975,-0.7335 -6.5078,-1.1569 -0.1738,-0.1447 -0.3169,-0.444 -0.3169,-0.6652 0,-0.7543 1.8585,-3.1875 3.75,-4.9092 4.2755,-3.892 4.3289,-4.3778 4.1653,-37.8133 -0.1098,-22.5548 -0.2289,-26.4662 -0.9682,-31.9843 -0.4263,-3.1822 -0.8621,-4.8904 -1.6507,-6.4703 -0.8737,-1.7504 -1.8476,-2.4526 -3.7808,-2.726 -1.6951,-0.2397 -2.4886,-0.7364 -2.3809,-1.4904 0.1263,-0.8773 3.95,-1.7039 9.9876,-2.1588 4.1957,-0.3162 13.686,-0.7823 13.7698,-0.6764 0.037,0.047 3.593,4.3962 7.9014,9.6644 9.1183,11.1497 12.8039,15.5577 16.3031,19.499 1.392,1.5679 5.3939,6.2374 8.8934,10.3767 9.5937,11.348 13.9277,16.0775 14.4422,15.7595 0.1299,-0.08 0.3427,-0.6824 0.4737,-1.3388 1.0718,-5.3688 1.2178,-29.5145 0.2305,-38.1388 -0.6519,-5.6938 -2.7693,-8.9948 -7.4425,-11.6021 -1.281,-0.7147 -2.4005,-1.415 -2.4878,-1.5561 -0.09,-0.1443 0.1945,-0.5802 0.6486,-0.9964 1.3355,-1.2237 2.4305,-1.3539 11.3523,-1.3497 7.8182,0 10.7299,0.1862 14.7925,0.9271 2.6426,0.482 3.6802,0.9238 3.6802,1.5672 0,0.8148 -0.7469,1.2886 -2.3434,1.4866 -1.6676,0.2068 -2.084,0.3903 -2.9461,1.2981 -1.9872,2.0924 -3.1374,7.9157 -3.8219,19.3476 -0.3828,6.3935 -0.6841,17.2401 -1.1494,41.3655 -0.2428,12.5909 -0.4793,22.9304 -0.5254,22.9766 -0.2147,0.2147 -3.9949,0.5818 -5.071,0.4925 -1.7358,-0.144 -3.3177,-1.1977 -6.2522,-4.165 -2.9443,-2.9768 -4.4457,-4.7459 -12.1023,-14.2596 -5.4832,-6.8131 -11.1622,-13.6793 -15.2785,-18.4728 -1.0233,-1.1916 -4.7963,-5.8098 -8.3844,-10.2626 -9.8903,-12.2734 -13.7211,-16.734 -14.073,-16.3858 -0.5091,0.5041 -0.6608,6.1852 -0.6745,25.2801 -0.018,26.889 -0.1482,25.9906 4.432,30.9292 2.3656,2.5507 4.2543,5.0971 4.3778,5.9023 0.1647,1.074 -4.0157,1.6773 -12.5875,1.8165 -3.073,0.05 -6.8779,2e-4 -8.4552,-0.1104 z"
     style="fill:#1c264a;fill-opacity:1;stroke:#1c264a;stroke-width:0.22805884;stroke-opacity:1" />
  <path
     id="path146"
     d="m 2038.2386,1305.2147 c -0.6898,-0.1615 -1.5868,-0.4699 -1.9934,-0.6853 -2.9239,-1.5496 -0.8272,-4.149 4.274,-5.2984 2.0973,-0.4726 3.2677,-1.0356 4.4091,-2.1208 1.1878,-1.1295 1.5206,-1.8466 1.5206,-3.2776 0,-2.0873 -0.9319,-2.8307 -3.9259,-3.1326 -1.5354,-0.1548 -1.9233,-0.2805 -2.4286,-0.7876 l -0.6014,-0.6034 0.066,-3.9857 c 0.066,-4.0606 -0.1171,-5.5092 -0.7643,-6.0468 -0.1945,-0.1614 -1.4686,-0.421 -2.8315,-0.5769 -1.3627,-0.1559 -3.3268,-0.5035 -4.3646,-0.7725 -11.4787,-2.9754 -23.4238,-14.1906 -27.4407,-25.764 -1.9164,-5.5209 -2.7335,-12.1279 -2.5683,-20.7667 0.1951,-10.2007 1.4634,-16.0228 4.7488,-21.7989 5.2324,-9.1987 15.8525,-17.6114 25.1288,-19.9058 10.5131,-2.6002 33.3174,-2.8718 41.0331,-0.4887 2.3368,0.7218 3.1416,1.8793 3.5747,5.1413 0.3594,2.708 0.7359,10.2727 0.5893,11.8454 -0.4087,4.3892 -0.4387,4.4534 -2.0801,4.4534 -1.378,0 -3.2322,-0.9081 -4.3662,-2.1383 -0.7366,-0.7991 -0.9426,-1.2232 -1.0778,-2.2186 -0.2168,-1.5971 -0.7379,-2.5896 -2.0225,-3.8524 -2.6513,-2.6064 -7.3476,-4.4854 -13.4567,-5.3841 -3.4961,-0.5142 -10.1471,-0.3374 -12.8519,0.3418 -6.789,1.7048 -11.8027,5.5269 -15.6467,11.9284 -8.6039,14.3274 -6.6189,36.4424 4.5125,50.2821 5.625,6.9934 13.7065,10.5882 23.1188,10.2836 4.0911,-0.1323 6.2524,-0.6394 9.5628,-2.2434 1.9366,-0.9384 2.642,-1.4351 4.113,-2.8961 1.5096,-1.4993 1.9955,-2.1906 3.2437,-4.6143 1.5839,-3.0754 3.6212,-5.5231 4.8489,-5.8256 0.967,-0.2382 1.9487,0.2873 2.4791,1.3269 0.7445,1.4595 0.7773,3.6123 0.1245,8.1477 -0.3162,2.1951 -0.6399,4.8634 -0.7193,5.9295 -0.2578,3.4635 -1.5023,5.1647 -5.0238,6.8673 -2.9173,1.4105 -7.0393,2.2511 -11.0608,2.2558 -4.2403,0.01 -10.0959,1.4614 -11.4932,2.8588 -0.7697,0.7698 -0.4541,1.1275 2.4276,2.7505 1.5365,0.8654 3.1887,1.9685 3.6715,2.4514 1.9513,1.9514 3.0134,5.8629 2.4491,9.0203 -0.811,4.5384 -3.872,7.2547 -9.9403,8.821 -2.762,0.7129 -7.2448,0.9455 -9.2365,0.4793 z"
     style="fill:#1c264a;fill-opacity:1;stroke:#1c264a;stroke-width:0.22805884;stroke-opacity:1" />
  <path
     id="path158"
     d="m 2191.1193,1278.676 c -7.5472,-0.1784 -11.2151,-0.6412 -11.9325,-1.5057 -0.2016,-0.2429 -0.1701,-0.5131 0.1373,-1.1553 0.7077,-1.4843 2.1821,-2.9963 5.539,-5.6801 l 3.2836,-2.6251 v -34.5208 -34.5208 l -3.2606,-2.5914 c -3.2113,-2.5524 -5.2839,-4.6097 -5.5083,-5.4677 -0.1591,-0.6091 0.4128,-0.782 3.7674,-1.1386 3.9222,-0.417 25.9622,-0.4215 29.0042,-0.01 1.1889,0.1624 2.2923,0.4036 2.4519,0.5361 0.7585,0.6295 -1.5883,3.2372 -6.0427,6.714 l -2.344,1.8297 v 34.6485 34.6486 l 3.4373,2.7193 c 5.0113,3.9648 6.0705,5.3112 5.0404,6.4077 -1.0438,1.1111 -3.8243,1.5253 -11.4551,1.7067 -3.3332,0.079 -8.7879,0.08 -12.1213,9e-4 z"
     style="fill:#1c264a;fill-opacity:1;stroke:#1c264a;stroke-width:0.22870336;stroke-opacity:1" />
  <path
     id="path160"
     d="m 2148.3518,1278.6745 c -5.9046,-0.1411 -10.5486,-0.5038 -11.6088,-0.907 -0.2884,-0.1095 -0.5846,-0.3564 -0.6583,-0.5485 -0.2339,-0.6096 0.9847,-2.68 2.7598,-4.6891 3.7703,-4.2673 3.8746,-5.2367 1.389,-12.9064 -3.6594,-11.2925 -8.1705,-13.4429 -22.3251,-10.6423 -5.7176,1.1313 -7.1674,1.9659 -8.209,4.7252 -0.6248,1.6552 -2.1845,8.4612 -2.6454,11.5433 -0.5496,3.6769 -0.1555,5.1173 1.9622,7.1658 1.395,1.3493 2.4759,2.8424 2.75,3.7985 0.1537,0.533 0.1079,0.7754 -0.2035,1.0865 -0.876,0.876 -6.4545,1.4004 -14.8979,1.4005 -8.1711,2e-4 -11.6639,-0.407 -11.6639,-1.3596 0,-0.716 1.7645,-3.9296 3.3327,-6.0694 2.8039,-3.8257 3.9997,-5.8057 6.0396,-9.9994 3.6496,-7.5028 7.3588,-16.6655 19.7925,-48.8917 5.0235,-13.0198 6.1972,-15.8886 7.6894,-18.7952 1.98,-3.8564 3.436,-5.2733 5.7441,-5.5896 1.3871,-0.1902 2.049,-5e-4 3.0423,0.8716 2.3582,2.0705 4.2598,6.2317 13.9323,30.4886 9.5616,23.9788 13.2201,32.704 17.3093,41.281 3.4299,7.1944 4.2607,8.6073 6.4445,10.9597 4.1205,4.439 3.8933,5.7808 -1.1307,6.6746 -1.999,0.3557 -11.9312,0.568 -18.8451,0.4029 z m -17.587,-46.5679 c -2.6571,-7.7656 -3.1844,-9.1363 -4.5171,-11.7431 -1.2105,-2.3678 -1.9458,-3.1671 -2.4947,-2.7116 -1.4862,1.2335 -7.191,16.4043 -7.191,19.1232 0,0.6819 0.1061,0.8308 0.7961,1.1192 1.4305,0.5977 3.116,0.7336 9.4315,0.7607 l 6.2253,0.027 z"
     style="fill:#1c264a;fill-opacity:1;stroke:#1c264a;stroke-width:0.22870336;stroke-opacity:1" />
  <path
     id="path162"
     d="m 2245.8604,1279.3701 c -4.4337,-0.3956 -11.8426,-2.2877 -13.5798,-3.4678 -0.5405,-0.3673 -0.8788,-0.8721 -1.1869,-1.7715 -1.0884,-3.1767 -2.4762,-11.6744 -2.5461,-15.5904 -0.031,-1.7892 0.018,-2.038 0.4989,-2.5514 0.3828,-0.4077 0.8367,-0.5945 1.601,-0.6591 2.5206,-0.213 4.4639,0.7208 4.7475,2.2815 0.3672,2.0205 2.1668,4.6968 5.1105,7.6 2.2294,2.1988 3.9092,3.2838 6.14,3.9664 1.3933,0.4263 2.1482,0.4708 8.1677,0.4815 6.4093,0.011 6.6761,-0.01 7.9373,-0.5154 1.6353,-0.6608 2.9429,-1.9663 4.3669,-4.3605 1.484,-2.4948 2.0426,-4.1371 2.071,-6.0901 0.071,-4.8774 -3.2271,-8.3478 -16.3633,-17.2177 -9.1084,-6.1503 -13.7218,-9.8076 -16.7316,-13.264 -3.9763,-4.5669 -5.5591,-8.4194 -5.8006,-14.1189 -0.4885,-11.5301 4.0952,-19.9091 12.9488,-23.6696 5.6052,-2.3808 11.7087,-3.1403 21.9775,-2.7348 6.9838,0.2758 9.0713,0.6172 11.5661,1.8919 2.1844,1.1159 3.4295,3.0628 4.1469,6.484 0.4966,2.3679 0.5745,12.3085 0.1061,13.6294 -0.6566,1.8548 -1.4362,1.2472 -10.674,-8.3173 -3.9811,-4.1219 -5.4547,-4.7759 -10.7606,-4.7759 -4.7124,0 -7.4742,0.8918 -10.0555,3.247 -2.2546,2.0572 -3.3842,5.0312 -3.3906,8.9268 v 2.454 l 0.8619,1.2515 c 1.9941,2.8955 7.3919,7.4088 18.2028,15.2203 6.4721,4.6766 7.7642,5.7224 10.7434,8.6956 5.1862,5.1761 8.0803,10.963 8.668,17.3326 0.6162,6.6769 -1.6697,13.1264 -6.2891,17.7438 -2.0534,2.0527 -3.8931,3.3475 -6.5322,4.5977 -5.7518,2.7246 -16.7401,4.1222 -25.9488,3.3004 z"
     style="fill:#1c264a;fill-opacity:1;stroke:#1c264a;stroke-width:0.22870336;stroke-opacity:1" />
  <path
     id="path166"
     d="m 2311.5999,1278.561 c -6.7279,-0.2101 -11.5499,-0.5868 -12.3279,-0.9631 -0.314,-0.1519 -0.7668,-0.6125 -1.0063,-1.0238 -0.8537,-1.4659 0.077,-2.7363 2.7785,-3.7965 2.0069,-0.7874 2.6275,-1.2695 3.6086,-2.8034 3.2993,-5.1576 4.194,-15.9155 4.1997,-50.4967 v -17.8212 l -4.0596,-4.1353 c -4.1082,-4.1849 -5.4424,-5.9473 -5.6989,-7.5279 -0.1171,-0.726 -0.066,-0.8514 0.4285,-1.0394 2.8366,-1.0785 22.676,-1.2893 54.556,-0.5796 l 6.6896,0.1489 v 6.6963 c 0,6.8402 -0.2292,10.4641 -0.8022,12.6812 -0.3497,1.3525 -0.9829,2.3704 -1.5433,2.4808 -0.6761,0.1332 -2.0368,-1.6567 -3.4428,-4.5292 -0.8581,-1.753 -1.7801,-3.2676 -2.3833,-3.9156 -1.7341,-1.8627 -4.4718,-2.7593 -12.526,-4.1021 -7.0874,-1.1817 -10.0944,-0.8283 -12.1306,1.4257 -2.2583,2.4997 -2.8709,6.9207 -2.4179,17.4554 0.1409,3.2704 0.3195,6.9048 0.3976,8.0763 l 0.1427,2.13 3.8025,-0.1394 c 8.9407,-0.3279 12.3663,-0.7846 14.7046,-1.9604 0.5446,-0.2739 2.0868,-1.6137 3.4267,-2.9773 1.4382,-1.4636 2.6928,-2.5436 3.0624,-2.6364 2.2499,-0.5646 3.2666,2.0104 3.7806,9.5732 0.3716,5.4711 0.033,10.439 -0.9317,13.6837 -1.1406,3.8351 -2.7007,3.6083 -4.9349,-0.7174 -2.2312,-4.3199 -4.6313,-5.4603 -13.7042,-6.5118 -7.5277,-0.8724 -9.2631,0.3803 -9.9411,7.1757 -0.303,3.0371 -0.3036,15.5261 -8e-4,18.2149 0.7293,6.4747 2.602,7.4355 14.483,7.4309 12.281,-0 15.5621,-1.5309 18.6402,-8.6707 1.0561,-2.4496 1.5532,-3.0643 2.8912,-3.5753 1.4233,-0.5436 2.663,-0.1588 3.4836,1.0812 0.5434,0.8211 0.63,1.2077 0.7086,3.1679 0.1501,3.7169 -0.7726,7.2691 -3.7822,14.574 l -1.7196,4.1739 -21.4153,-0.036 c -11.7784,-0.02 -23.9368,-0.1149 -27.0184,-0.2112 z"
     style="fill:#1c264a;fill-opacity:1;stroke:#1c264a;stroke-width:0.22870336;stroke-opacity:1" />
  <path
     id="path80-4"
     d="m 1179.7788,1068.647 c -4.8061,-1.1471 -16.7594,-6.5478 -24.0942,-10.8861 -8.5074,-5.0319 -19.6189,-15.8223 -23.8469,-23.1579 -11.7432,-20.3743 -15.7654,-39.8215 -14.5767,-70.47778 1.0328,-26.63724 3.0957,-37.14362 10.0548,-51.2087 11.4502,-23.14201 31.0578,-37.76981 56.7178,-42.31309 7.856,-1.39095 25.714,-1.40482 33.142,-0.0258 22.2337,4.12793 39.0515,15.45425 51.461,34.65753 10.7276,16.60055 13.4671,27.14846 14.5269,55.93302 0.6093,16.55089 0.3526,17.79042 -4.1723,20.14047 -4.0759,2.11686 -20.9342,2.76419 -73.5003,2.82228 l -46.1013,0.051 0.015,5.33426 c 0.048,17.45751 9.6344,34.03351 23.7054,40.99071 5.3681,2.6542 5.9841,2.7582 18.0866,3.0547 12.4076,0.3039 12.5815,0.2823 17.9206,-2.227 7.2243,-3.3953 16.2271,-11.8536 17.7455,-16.6721 0.87,-2.7609 1.8475,-3.9469 4.2096,-5.107 6.597,-3.24 29.6323,-4.1017 35.2771,-1.3196 3.7502,1.8484 4.2367,3.4257 2.6326,8.5354 -1.5883,5.0592 -10.0985,19.481 -15.8299,26.8261 -4.9496,6.3431 -15.1119,13.791 -26.741,19.5983 -8.5873,4.2884 -10.2094,4.7977 -17.5357,5.5066 -9.871,0.9552 -35.0117,0.9196 -39.0963,-0.055 z m 62.521,-121.19533 c -0.7652,-7.79955 -2.5441,-14.64492 -5.2791,-20.31461 -2.8494,-5.90689 -10.7147,-14.28082 -16.964,-18.0612 -4.7725,-2.88694 -5.2702,-2.99721 -14.8336,-3.28677 -5.4425,-0.16485 -11.9834,0.13576 -14.5354,0.66784 -11.628,2.42442 -21.6261,10.0323 -26.2632,19.9845 -4.5961,9.86435 -6.7083,25.59747 -3.5478,26.42698 0.8179,0.21467 19.6053,0.43487 41.7497,0.48932 l 40.2626,0.099 z"
     style="fill:#1d274b;fill-opacity:1;stroke:#1d274b;stroke-width:0.85163409;stroke-opacity:1" />
</svg>
