<svg width="17" height="22" viewBox="0 0 17 22" fill="none" xmlns="http://www.w3.org/2000/svg">
<path d="M15.8549 3.01208H15.2476V17.9321C15.2476 18.9232 14.4408 19.7301 13.4496 19.7301H7.2964H2.40332V20.2831C2.40332 20.9165 2.91735 21.4305 3.55068 21.4305H9.70173H15.8528C16.4861 21.4305 17.0001 20.9165 17.0001 20.2831V4.15944C17.0001 3.52612 16.4883 3.01208 15.8549 3.01208Z" fill="#244C82"/>
<path d="M7.29624 19.0794H13.4473C14.0806 19.0794 14.5946 18.5653 14.5946 17.932V3.01205V1.80831C14.5946 1.17498 14.0806 0.66095 13.4473 0.66095H7.29624H5.25095V1.04051C5.25526 1.07955 5.25745 1.12076 5.25745 1.16197V3.66273V4.30473C5.25745 5.19615 4.53304 5.92057 3.64161 5.92057H2.99961H0.498851C0.466317 5.92057 0.431614 5.9184 0.399081 5.91623H0V17.932C0 18.5653 0.514033 19.0794 1.14736 19.0794H2.40533H7.29624ZM7.52831 15.1797H3.51798C3.21867 15.1797 2.97575 14.9367 2.97575 14.6374C2.97575 14.3381 3.21867 14.0952 3.51798 14.0952H7.53048C7.82979 14.0952 8.07271 14.3381 8.07271 14.6374C8.07271 14.9367 7.82762 15.1797 7.52831 15.1797ZM11.5408 12.4122H3.51798C3.21867 12.4122 2.97575 12.1692 2.97575 11.8699C2.97575 11.5706 3.21867 11.3277 3.51798 11.3277H11.5408C11.8401 11.3277 12.083 11.5706 12.083 11.8699C12.083 12.1692 11.8401 12.4122 11.5408 12.4122ZM3.51798 8.38879H11.5408C11.8401 8.38879 12.083 8.63171 12.083 8.93102C12.083 9.23033 11.8401 9.47325 11.5408 9.47325H3.51798C3.21867 9.47325 2.97575 9.23033 2.97575 8.93102C2.97575 8.63171 3.21867 8.38879 3.51798 8.38879Z" fill="#244C82"/>
<path d="M0.498756 5.26988H3.64152C3.64369 5.26988 3.64802 5.26988 3.65019 5.26988C4.17507 5.26554 4.60018 4.84043 4.60452 4.31555C4.60452 4.31338 4.60452 4.30905 4.60452 4.30688V1.16195C4.60452 0.871317 4.36593 0.678284 4.1187 0.678284C3.99941 0.678284 3.88012 0.721662 3.78035 0.821432L0.156067 4.44569C-0.147581 4.74934 0.0671417 5.26988 0.498756 5.26988Z" fill="#244C82"/>
</svg>
