<svg width="27" height="20" viewBox="0 0 27 20" fill="none" xmlns="http://www.w3.org/2000/svg">
<path d="M2.59146 5.88196C2.93301 6.09875 3.96255 6.74264 5.68015 7.81327C7.3978 8.88391 8.71364 9.70828 9.62772 10.2864C9.72814 10.3498 9.9415 10.4875 10.2679 10.6999C10.5944 10.9124 10.8656 11.0841 11.0814 11.215C11.2974 11.3459 11.5586 11.4928 11.8651 11.6554C12.1715 11.8178 12.4603 11.94 12.7315 12.0209C13.0028 12.1025 13.2538 12.1429 13.4848 12.1429H13.5H13.5152C13.7462 12.1429 13.9974 12.1024 14.2686 12.0209C14.5397 11.94 14.8288 11.8177 15.1349 11.6554C15.4412 11.4926 15.7023 11.3459 15.9183 11.215C16.1343 11.0841 16.4054 10.9124 16.7319 10.6999C17.0583 10.4874 17.2719 10.3498 17.3723 10.2864C18.2963 9.70828 20.6469 8.23998 24.4236 5.88167C25.1568 5.42107 25.7694 4.86529 26.2615 4.21472C26.754 3.56443 27 2.88224 27 2.16852C27 1.57211 26.7613 1.06157 26.2841 0.636952C25.807 0.212238 25.2419 0 24.5892 0H2.41061C1.63722 0 1.04205 0.234882 0.6252 0.704645C0.2084 1.1745 0 1.7618 0 2.46649C0 3.03571 0.276319 3.65253 0.828692 4.31659C1.38101 4.98069 1.9688 5.50253 2.59146 5.88196Z" fill="#0D345D"/>
<path d="M25.4932 7.33201C22.1989 9.33767 19.6975 10.8964 17.9901 12.0079C17.4176 12.3872 16.9531 12.6833 16.5964 12.8955C16.2397 13.1078 15.7654 13.3247 15.1726 13.5459C14.5801 13.7675 14.0279 13.878 13.5155 13.878H13.5001H13.485C12.9727 13.878 12.4202 13.7675 11.8277 13.5459C11.2351 13.3247 10.7604 13.1078 10.4039 12.8955C10.0474 12.6833 9.58277 12.3872 9.01029 12.0079C7.65419 11.1134 5.15814 9.5546 1.52204 7.33201C0.949347 6.9889 0.442094 6.59561 0.00012207 6.15295V16.9137C0.00012207 17.5104 0.236069 18.0206 0.708228 18.4453C1.18028 18.8701 1.74791 19.0824 2.41089 19.0824H24.5895C25.2523 19.0824 25.8199 18.8701 26.292 18.4453C26.7643 18.0205 27.0001 17.5104 27.0001 16.9137V6.15295C26.5681 6.58645 26.066 6.97974 25.4932 7.33201Z" fill="#0D345D"/>
</svg>
