<svg width="51" height="23" viewBox="0 0 51 23" fill="none" xmlns="http://www.w3.org/2000/svg">
<circle cx="11.5" cy="11.5" r="10.5" stroke="#244C82" stroke-width="2"/>
<circle cx="39.5" cy="11.5" r="10.5" stroke="#ECDC49" stroke-width="2"/>
<path d="M41.91 8.412C41.546 8.02 41.1913 7.75867 40.846 7.628C40.51 7.49733 40.1693 7.432 39.824 7.432C39.3107 7.432 38.844 7.52533 38.424 7.712C38.0133 7.88933 37.6587 8.14133 37.36 8.468C37.0613 8.78533 36.828 9.15867 36.66 9.588C36.5013 10.0173 36.422 10.4793 36.422 10.974C36.422 11.506 36.5013 11.996 36.66 12.444C36.828 12.892 37.0613 13.2793 37.36 13.606C37.6587 13.9327 38.0133 14.1893 38.424 14.376C38.844 14.5627 39.3107 14.656 39.824 14.656C40.2253 14.656 40.6127 14.5627 40.986 14.376C41.3687 14.18 41.7233 13.872 42.05 13.452L43.506 14.488C43.058 15.104 42.512 15.552 41.868 15.832C41.224 16.112 40.538 16.252 39.81 16.252C39.0447 16.252 38.34 16.1307 37.696 15.888C37.0613 15.636 36.5107 15.286 36.044 14.838C35.5867 14.3807 35.2273 13.8347 34.966 13.2C34.7047 12.5653 34.574 11.8607 34.574 11.086C34.574 10.2927 34.7047 9.574 34.966 8.93C35.2273 8.27667 35.5867 7.72133 36.044 7.264C36.5107 6.80667 37.0613 6.45667 37.696 6.214C38.34 5.962 39.0447 5.836 39.81 5.836C40.482 5.836 41.1027 5.95733 41.672 6.2C42.2507 6.43333 42.7873 6.83467 43.282 7.404L41.91 8.412Z" fill="#ECDC49"/>
<path d="M3.711 8.628H5.925C6.231 8.628 6.525 8.658 6.807 8.718C7.095 8.772 7.35 8.868 7.572 9.006C7.794 9.144 7.971 9.33 8.103 9.564C8.235 9.798 8.301 10.095 8.301 10.455C8.301 10.917 8.172 11.304 7.914 11.616C7.662 11.928 7.299 12.117 6.825 12.183L8.517 15H7.149L5.673 12.3H4.845V15H3.711V8.628ZM5.727 11.328C5.889 11.328 6.051 11.322 6.213 11.31C6.375 11.292 6.522 11.256 6.654 11.202C6.792 11.142 6.903 11.055 6.987 10.941C7.071 10.821 7.113 10.656 7.113 10.446C7.113 10.26 7.074 10.11 6.996 9.996C6.918 9.882 6.816 9.798 6.69 9.744C6.564 9.684 6.423 9.645 6.267 9.627C6.117 9.609 5.97 9.6 5.826 9.6H4.845V11.328H5.727ZM9.37995 8.628H13.6009V9.654H10.5139V11.22H13.4389V12.246H10.5139V13.974H13.7629V15H9.37995V8.628ZM14.8819 8.628H17.0959C17.4019 8.628 17.6959 8.658 17.9779 8.718C18.2659 8.772 18.5209 8.868 18.7429 9.006C18.9649 9.144 19.1419 9.33 19.2739 9.564C19.4059 9.798 19.4719 10.095 19.4719 10.455C19.4719 10.917 19.3429 11.304 19.0849 11.616C18.8329 11.928 18.4699 12.117 17.9959 12.183L19.6879 15H18.3199L16.8439 12.3H16.0159V15H14.8819V8.628ZM16.8979 11.328C17.0599 11.328 17.2219 11.322 17.3839 11.31C17.5459 11.292 17.6929 11.256 17.8249 11.202C17.9629 11.142 18.0739 11.055 18.1579 10.941C18.2419 10.821 18.2839 10.656 18.2839 10.446C18.2839 10.26 18.2449 10.11 18.1669 9.996C18.0889 9.882 17.9869 9.798 17.8609 9.744C17.7349 9.684 17.5939 9.645 17.4379 9.627C17.2879 9.609 17.1409 9.6 16.9969 9.6H16.0159V11.328H16.8979Z" fill="#244C82"/>
</svg>
